# Blender 4.4.0
# www.blender.org
mtllib Black.mtl
o Checker_Checker_0
v -0.365465 0.222220 0.673817
v -0.579329 -0.204546 0.503856
v -0.365465 -0.204546 0.673818
v -0.676543 -0.217915 -0.246830
v -0.763171 -0.217915 0.002973
v -0.723606 -0.217915 -0.262555
v -0.595611 -0.217915 -0.498537
v -0.394626 -0.217915 -0.676511
v -0.556764 -0.217915 -0.467664
v -0.144889 -0.217915 -0.775010
v -0.368680 -0.217915 -0.634213
v 0.116161 -0.217915 -0.733076
v 0.123475 -0.217915 -0.782155
v 0.354440 -0.217915 -0.653464
v 0.378098 -0.217915 -0.697082
v 0.551119 -0.217915 -0.497159
v 0.588269 -0.217915 -0.530055
v 0.682477 -0.217915 -0.283011
v 0.728638 -0.217915 -0.301217
v 0.782275 -0.217915 -0.038170
v 0.695647 -0.217914 0.211633
v 0.742711 -0.217914 0.227357
v 0.575868 -0.217914 0.432466
v 0.614716 -0.217914 0.463339
v 0.387785 -0.217914 0.599016
v 0.413729 -0.217914 0.641313
v 0.163994 -0.217914 0.739813
v -0.097058 -0.217914 0.697878
v -0.104370 -0.217914 0.746957
v -0.521852 -0.204546 0.452962
v -0.328864 0.154988 0.606334
v -0.328864 -0.204546 0.606335
v -0.335335 -0.217914 0.618267
v -0.358994 -0.217914 0.661885
v -0.663373 -0.217914 0.247813
v -0.709534 -0.217914 0.266019
v -0.574041 0.239007 0.499175
v -0.579329 0.222220 0.503856
v -0.362100 0.239007 0.667611
v -0.561279 0.245961 0.487874
v -0.715594 0.239007 0.268409
v -0.722162 0.222220 0.271000
v -0.699736 0.245961 0.262155
v -0.769683 0.239007 0.003146
v -0.776741 0.222220 0.003334
v -0.752642 0.245961 0.002692
v -0.729784 0.239007 -0.264619
v -0.736481 0.222220 -0.266856
v -0.713616 0.245961 -0.259217
v -0.600711 0.239007 -0.502590
v -0.606238 0.222220 -0.506983
v -0.587366 0.245961 -0.491983
v -0.398031 0.239007 -0.682064
v -0.401723 0.222220 -0.688082
v -0.389119 0.245961 -0.667532
v -0.146191 0.239007 -0.781393
v -0.147602 0.222220 -0.788312
v -0.142785 0.245961 -0.764690
v 0.125476 0.222220 -0.795582
v 0.124435 0.239007 -0.788598
v 0.121922 0.245961 -0.771737
v 0.384570 0.222220 -0.709015
v 0.381204 0.239007 -0.702809
v 0.373076 0.245961 -0.687824
v 0.593145 0.239007 -0.534373
v 0.598431 0.222220 -0.539054
v 0.580384 0.245961 -0.523072
v 0.734698 0.239007 -0.303607
v 0.741266 0.222220 -0.306198
v 0.718839 0.245961 -0.297353
v 0.795845 0.222220 -0.038532
v 0.788786 0.239007 -0.038344
v 0.771745 0.245961 -0.037890
v 0.748889 0.239007 0.229421
v 0.755585 0.222220 0.231659
v 0.732720 0.245961 0.224019
v 0.619816 0.239007 0.467392
v 0.625343 0.222220 0.471785
v 0.606469 0.245961 0.456786
v 0.417135 0.239007 0.646865
v 0.420828 0.222220 0.652885
v 0.408221 0.245961 0.632334
v 0.165296 0.239007 0.746195
v 0.166706 0.222220 0.753114
v 0.161889 0.245961 0.729492
v -0.105330 0.239007 0.753400
v -0.106371 0.222220 0.760384
v -0.102818 0.245961 0.736539
v -0.362100 0.239007 0.667611
v -0.365465 0.222220 0.673817
v -0.353971 0.245961 0.652626
v 0.408221 0.245961 0.632334
v -0.142785 0.245961 -0.764690
v -0.752642 0.245961 0.002692
v -0.650745 -0.204546 0.242832
v -0.521852 0.154988 0.452962
v -0.663668 -0.204546 -0.242528
v -0.699998 0.154988 0.001291
v -0.699998 -0.204546 0.001291
v -0.546137 -0.204547 -0.459218
v -0.663668 0.154988 -0.242529
v -0.361581 -0.204547 -0.622642
v -0.546137 0.154988 -0.459218
v -0.132263 -0.204547 -0.713089
v -0.361581 0.154987 -0.622642
v 0.114160 -0.204547 -0.719649
v -0.132263 0.154987 -0.713089
v 0.347968 -0.204547 -0.641532
v 0.114160 0.154987 -0.719649
v 0.540957 -0.204547 -0.488159
v 0.347968 0.154987 -0.641532
v 0.669850 -0.204546 -0.278030
v 0.540957 0.154988 -0.488159
v 0.719102 -0.204546 -0.036489
v 0.669850 0.154988 -0.278030
v 0.682771 -0.204546 0.207331
v 0.719102 0.154988 -0.036489
v 0.565242 -0.204546 0.424020
v 0.682771 0.154988 0.207331
v 0.380686 -0.204546 0.587444
v 0.565242 0.154988 0.424020
v 0.151368 -0.204546 0.677891
v 0.380686 0.154988 0.587444
v -0.095057 -0.204546 0.684452
v 0.151368 0.154988 0.677891
v -0.328864 -0.204546 0.606335
v -0.095057 0.154988 0.684451
v -0.650745 0.154988 0.242832
v -0.325826 0.171777 0.600733
v -0.505566 0.178729 0.438539
v -0.517082 0.171777 0.448737
v -0.644819 0.171777 0.240494
v -0.630509 0.178729 0.234850
v -0.678250 0.178729 0.000712
v -0.693628 0.171777 0.001122
v -0.657624 0.171776 -0.240509
v -0.529105 0.178729 -0.445683
v -0.541148 0.171776 -0.455254
v -0.358250 0.171776 -0.617211
v -0.350207 0.178729 -0.604098
v -0.130990 0.171776 -0.706845
v -0.127916 0.178729 -0.691773
v 0.113221 0.171776 -0.713347
v 0.110956 0.178729 -0.698132
v 0.344930 0.171776 -0.635931
v 0.524669 0.178729 -0.473737
v 0.536186 0.171776 -0.483935
v 0.663922 0.171776 -0.275692
v 0.712733 0.171777 -0.036319
v 0.649611 0.178729 -0.270048
v 0.676728 0.171777 0.205311
v 0.662137 0.178729 0.200437
v 0.560253 0.171777 0.420056
v 0.548210 0.178729 0.410485
v 0.377355 0.171777 0.582013
v 0.150095 0.171777 0.671647
v 0.369312 0.178729 0.568900
v -0.094119 0.171777 0.678149
v -0.091851 0.178729 0.662934
v -0.325826 0.171777 0.600733
v -0.328864 0.154988 0.606334
v -0.678250 0.178729 0.000712
v -0.127916 0.178729 -0.691773
v 0.649611 0.178729 -0.270048
v 0.598431 -0.204547 -0.539054
v 0.384570 -0.204547 -0.709015
v 0.741266 -0.204546 -0.306197
v 0.795845 -0.204546 -0.038532
v 0.755585 -0.204546 0.231659
v 0.625343 -0.204546 0.471785
v 0.420828 -0.204546 0.652885
v 0.166706 -0.204546 0.753114
v -0.106371 -0.204546 0.760384
v -0.569165 -0.217914 0.494857
v -0.365465 -0.204546 0.673818
v -0.722162 -0.204546 0.271000
v -0.776741 -0.204546 0.003334
v -0.736481 -0.204546 -0.266856
v -0.606238 -0.204547 -0.506983
v -0.401723 -0.204547 -0.688082
v -0.147602 -0.204547 -0.788312
v 0.125476 -0.204547 -0.795582
v -0.365465 -0.204546 0.673818
v -0.576351 -0.213998 0.501221
v -0.363570 -0.213998 0.670323
v -0.722162 -0.204546 0.271000
v -0.579329 -0.204546 0.503856
v -0.776741 -0.204546 0.003334
v -0.718464 -0.213998 0.269541
v -0.736481 -0.204546 -0.266856
v -0.772768 -0.213998 0.003229
v -0.732710 -0.213999 -0.265596
v -0.606238 -0.204547 -0.506983
v -0.603127 -0.213999 -0.504509
v -0.399644 -0.213999 -0.684693
v -0.147602 -0.204547 -0.788312
v -0.401723 -0.204547 -0.688082
v 0.125476 -0.204547 -0.795582
v -0.146808 -0.213999 -0.784416
v 0.384570 -0.204547 -0.709015
v 0.124889 -0.213999 -0.791649
v 0.382674 -0.213999 -0.705520
v 0.598431 -0.204547 -0.539054
v 0.595456 -0.213999 -0.536418
v 0.737568 -0.213999 -0.304739
v 0.741266 -0.204546 -0.306197
v 0.791870 -0.213999 -0.038426
v 0.795845 -0.204546 -0.038532
v 0.751814 -0.213998 0.230399
v 0.625343 -0.204546 0.471785
v 0.755585 -0.204546 0.231659
v 0.622230 -0.213998 0.469311
v 0.420828 -0.204546 0.652885
v 0.418748 -0.213998 0.649495
v 0.166706 -0.204546 0.753114
v -0.106371 -0.204546 0.760384
v 0.165911 -0.213998 0.749218
v -0.105785 -0.213998 0.756451
v -0.532016 -0.217914 0.461961
v -0.330759 -0.213998 0.609829
v -0.524830 -0.213998 0.455597
v -0.328864 -0.204546 0.606335
v -0.654445 -0.213998 0.244291
v -0.521852 -0.204546 0.452962
v -0.713568 -0.217915 0.001652
v -0.703973 -0.213998 0.001397
v -0.650745 -0.204546 0.242832
v -0.667439 -0.213999 -0.243788
v -0.699998 -0.204546 0.001291
v -0.549250 -0.213999 -0.461692
v -0.663668 -0.204546 -0.242528
v -0.363661 -0.213999 -0.626031
v -0.546137 -0.204547 -0.459218
v -0.134976 -0.217915 -0.726390
v -0.133057 -0.213999 -0.716984
v -0.361581 -0.204547 -0.622642
v 0.114747 -0.213999 -0.723582
v -0.132263 -0.204547 -0.713089
v 0.349864 -0.213999 -0.645027
v 0.114160 -0.204547 -0.719649
v 0.543932 -0.213999 -0.490795
v 0.347968 -0.204547 -0.641532
v 0.669850 -0.204546 -0.278030
v 0.540957 -0.204547 -0.488159
v 0.723077 -0.213999 -0.036595
v 0.673549 -0.213999 -0.279489
v 0.732672 -0.217915 -0.036850
v 0.686542 -0.213998 0.208591
v 0.719102 -0.204546 -0.036489
v 0.568353 -0.213998 0.426494
v 0.682771 -0.204546 0.207331
v 0.380686 -0.204546 0.587444
v 0.565242 -0.204546 0.424020
v 0.154079 -0.217914 0.691192
v 0.382766 -0.213998 0.590834
v 0.151368 -0.204546 0.677891
v 0.152162 -0.213998 0.681787
v -0.095642 -0.213998 0.688384
v -0.095057 -0.204546 0.684452
v -0.353971 0.245961 0.652626
v -0.561279 0.245961 0.487874
v -0.353971 0.245961 0.652626
v -0.102818 0.245961 0.736539
v 0.161889 0.245961 0.729492
v 0.606469 0.245961 0.456786
v 0.718839 0.245961 -0.297353
v 0.732720 0.245961 0.224019
v 0.771745 0.245961 -0.037890
v 0.580384 0.245961 -0.523072
v 0.373076 0.245961 -0.687824
v 0.121922 0.245961 -0.771737
v -0.389119 0.245961 -0.667532
v -0.587366 0.245961 -0.491983
v -0.713616 0.245961 -0.259217
v -0.699736 0.245961 0.262155
v -0.318491 0.178729 0.587211
v -0.643035 0.178729 -0.235634
v 0.337595 0.178729 -0.622409
v 0.697355 0.178729 -0.035910
v 0.147021 0.178729 0.656575
v -0.318491 0.178729 0.587211
v -0.091851 0.178729 0.662934
v -0.318491 0.178729 0.587211
v -0.505566 0.178729 0.438539
v -0.630509 0.178729 0.234850
v -0.643035 0.178729 -0.235634
v -0.529105 0.178729 -0.445683
v -0.350207 0.178729 -0.604098
v 0.110956 0.178729 -0.698132
v 0.337595 0.178729 -0.622409
v 0.524669 0.178729 -0.473737
v 0.697355 0.178729 -0.035910
v 0.662137 0.178729 0.200437
v 0.548210 0.178729 0.410485
v 0.369312 0.178729 0.568900
v 0.147021 0.178729 0.656575
vn -0.5276 0.0162 0.8493
vn -0.7091 -0.0061 0.7051
vn -0.4263 -0.0120 0.9045
vn 0.0469 -0.9987 0.0187
vn -0.0686 -0.9976 0.0018
vn -0.0857 -0.9957 -0.0343
vn -0.0375 -0.9989 -0.0298
vn -0.0389 -0.9977 -0.0557
vn 0.0485 -0.9979 0.0433
vn -0.0138 -0.9986 -0.0520
vn 0.0241 -0.9989 0.0392
vn -0.0120 -0.9967 0.0807
vn 0.0126 -0.9963 -0.0847
vn -0.0220 -0.9989 0.0405
vn 0.0358 -0.9977 -0.0577
vn -0.0461 -0.9979 0.0458
vn 0.0535 -0.9977 -0.0419
vn -0.0597 -0.9979 0.0236
vn 0.0876 -0.9957 -0.0288
vn 0.0537 -0.9986 0.0017
vn -0.0604 -0.9979 -0.0242
vn 0.0631 -0.9977 0.0253
vn -0.0360 -0.9989 -0.0286
vn 0.0507 -0.9977 0.0453
vn -0.0288 -0.9987 -0.0413
vn 0.0347 -0.9978 0.0566
vn 0.0137 -0.9976 0.0672
vn 0.0059 -0.9979 -0.0648
vn -0.0071 -0.9989 0.0474
vn 0.7106 -0.0108 -0.7035
vn 0.5262 -0.0118 -0.8503
vn 0.4275 -0.0108 -0.9040
vn 0.0277 -0.9979 -0.0588
vn -0.0408 -0.9963 0.0752
vn 0.0459 -0.9987 -0.0212
vn -0.0837 -0.9957 0.0388
vn -0.5147 0.7109 0.4793
vn -0.7861 0.0163 0.6179
vn -0.3201 0.7108 0.6263
vn -0.0098 0.9999 0.0097
vn -0.6476 0.7109 0.2744
vn -0.9500 0.0163 0.3118
vn -0.0108 0.9999 0.0050
vn -0.7569 0.6512 0.0553
vn -0.9994 0.0163 -0.0319
vn -0.0045 1.0000 0.0001
vn -0.6795 0.7103 -0.1835
vn -0.9282 0.0163 -0.3718
vn -0.1351 0.9893 -0.0542
vn -0.5326 0.7506 -0.3911
vn -0.7450 0.0163 -0.6669
vn -0.0282 0.9994 -0.0224
vn -0.3827 0.7109 -0.5901
vn -0.4720 0.0163 -0.8814
vn -0.0150 0.9997 -0.0216
vn -0.1585 0.6089 -0.7772
vn -0.1435 0.0111 -0.9896
vn -0.0009 1.0000 -0.0039
vn 0.2007 0.0163 -0.9795
vn 0.1210 0.7109 -0.6928
vn 0.0299 0.9893 -0.1425
vn 0.5249 0.0213 -0.8509
vn 0.2937 0.7667 -0.5710
vn 0.0026 1.0000 -0.0043
vn 0.4776 0.7506 -0.4567
vn 0.7861 0.0163 -0.6179
vn 0.0825 0.9939 -0.0730
vn 0.6959 0.6680 -0.2636
vn 0.9496 0.0112 -0.3132
vn 0.0075 1.0000 -0.0035
vn 0.9994 0.0213 0.0290
vn 0.6421 0.7666 -0.0030
vn 0.1451 0.9893 -0.0125
vn 0.7301 0.6512 0.2069
vn 0.9282 0.0163 0.3718
vn 0.0629 0.9978 0.0211
vn 0.5327 0.7505 0.3911
vn 0.7450 0.0163 0.6669
vn 0.0140 0.9998 0.0111
vn 0.4263 0.6512 0.6278
vn 0.4720 0.0163 0.8814
vn 0.0014 1.0000 0.0024
vn 0.1567 0.7506 0.6419
vn 0.1421 0.0163 0.9897
vn 0.0220 0.9939 0.1078
vn -0.0862 0.7109 0.6980
vn -0.2050 0.0163 0.9786
vn -0.0021 0.9997 0.0236
vn -0.3193 0.7108 0.6268
vn -0.5272 0.0161 0.8496
vn -0.0616 0.9893 0.1321
vn 0.0011 1.0000 0.0019
vn -0.0008 1.0000 -0.0034
vn -0.0041 1.0000 0.0001
vn 0.9083 -0.0108 -0.4181
vn 0.7838 -0.0225 -0.6206
vn 0.9646 -0.0108 0.2636
vn 0.9995 -0.0172 0.0268
vn 0.9966 -0.0107 -0.0822
vn 0.8163 -0.0108 0.5776
vn 0.9301 -0.0172 0.3670
vn 0.5695 -0.0108 0.8219
vn 0.7472 -0.0225 0.6643
vn 0.2540 -0.0108 0.9671
vn 0.4720 -0.0172 0.8814
vn -0.0921 -0.0108 0.9957
vn 0.1421 -0.0172 0.9897
vn -0.4271 -0.0108 0.9041
vn -0.2050 -0.0172 0.9786
vn -0.7092 -0.0072 0.7050
vn -0.5259 -0.0118 0.8504
vn -0.9079 -0.0142 0.4190
vn -0.7828 -0.0172 0.6220
vn -0.9966 -0.0107 0.0822
vn -0.9488 -0.0225 0.3150
vn -0.9646 -0.0108 -0.2636
vn -0.9993 -0.0172 -0.0320
vn -0.8174 -0.0072 -0.5760
vn -0.9281 -0.0172 -0.3718
vn -0.5719 -0.0108 -0.8202
vn -0.7463 -0.0118 -0.6656
vn -0.2550 -0.0142 -0.9668
vn -0.4749 -0.0225 -0.8797
vn 0.0921 -0.0107 -0.9957
vn -0.1421 -0.0172 -0.9897
vn 0.4268 -0.0107 -0.9043
vn 0.2050 -0.0172 -0.9786
vn 0.9495 -0.0117 -0.3134
vn 0.3529 -0.6732 -0.6498
vn 0.0407 -0.9983 -0.0405
vn 0.5190 -0.7331 -0.4396
vn 0.7267 -0.6294 -0.2753
vn 0.0264 -0.9996 -0.0122
vn 0.0030 -1.0000 -0.0001
vn 0.7905 -0.6123 0.0155
vn 0.6535 -0.7157 0.2464
vn 0.0471 -0.9983 0.0330
vn 0.5230 -0.7330 0.4348
vn 0.4020 -0.6739 0.6199
vn 0.0921 -0.9870 0.1320
vn 0.1657 -0.6739 0.7200
vn 0.0013 -1.0000 0.0049
vn -0.0802 -0.6123 0.7865
vn -0.0056 -0.9993 0.0374
vn -0.3526 -0.6732 0.6499
vn -0.1426 -0.9817 0.1262
vn -0.6155 -0.6123 0.4962
vn -0.6271 -0.7331 0.2635
vn -0.6968 -0.7158 0.0453
vn -0.0032 -1.0000 0.0012
vn -0.7064 -0.6739 -0.2165
vn -0.0043 -1.0000 -0.0012
vn -0.6434 -0.5698 -0.5113
vn -0.1492 -0.9817 -0.1186
vn -0.3683 -0.7330 -0.5719
vn -0.1656 -0.7158 -0.6784
vn -0.0029 -1.0000 -0.0048
vn 0.0802 -0.6123 -0.7866
vn 0.0017 -0.9999 -0.0118
vn 0.3522 -0.6732 -0.6502
vn 0.5257 -0.0117 -0.8506
vn 0.0025 -1.0000 -0.0001
vn 0.0012 -1.0000 0.0044
vn -0.0028 -1.0000 0.0011
vn 0.7096 -0.0120 -0.7045
vn 0.4244 -0.0091 -0.9054
vn 0.9081 -0.0091 -0.4186
vn 0.9965 -0.0090 -0.0827
vn 0.9652 -0.0061 0.2616
vn 0.8180 -0.0090 0.5751
vn 0.5719 -0.0091 0.8203
vn 0.2569 -0.0090 0.9664
vn -0.0891 -0.0091 0.9960
vn -0.0358 -0.9989 0.0317
vn -0.4255 -0.0120 0.9049
vn -0.9071 -0.0091 0.4208
vn -0.9963 -0.0091 0.0852
vn -0.9654 -0.0090 -0.2607
vn -0.8170 -0.0120 -0.5765
vn -0.5712 -0.0061 -0.8208
vn -0.2569 -0.0091 -0.9664
vn 0.0891 -0.0091 -0.9960
vn -0.4259 -0.0125 0.9047
vn -0.5262 -0.7113 0.4659
vn -0.3345 -0.7125 0.6168
vn -0.9071 -0.0095 0.4208
vn -0.7091 -0.0067 0.7051
vn -0.9963 -0.0094 0.0851
vn -0.6681 -0.7110 0.2192
vn -0.9654 -0.0095 -0.2607
vn -0.7586 -0.6514 -0.0149
vn -0.6608 -0.7115 -0.2391
vn -0.8170 -0.0124 -0.5765
vn -0.4691 -0.8006 -0.3728
vn -0.3800 -0.6687 -0.6390
vn -0.2568 -0.0095 -0.9664
vn -0.5712 -0.0065 -0.8208
vn 0.0892 -0.0096 -0.9960
vn -0.0998 -0.7111 -0.6960
vn 0.4244 -0.0095 -0.9054
vn 0.1464 -0.6515 -0.7444
vn 0.3501 -0.7115 -0.6092
vn 0.7096 -0.0124 -0.7045
vn 0.4709 -0.7670 -0.4359
vn 0.6378 -0.7111 -0.2959
vn 0.9082 -0.0094 -0.4184
vn 0.7005 -0.7111 -0.0600
vn 0.9965 -0.0095 -0.0827
vn 0.7083 -0.6687 0.2259
vn 0.8180 -0.0095 0.5752
vn 0.9652 -0.0066 0.2616
vn 0.5391 -0.7115 0.4506
vn 0.5719 -0.0096 0.8203
vn 0.3234 -0.7514 0.5752
vn 0.2569 -0.0094 0.9664
vn -0.0892 -0.0095 0.9960
vn 0.1171 -0.6514 0.7496
vn -0.1220 -0.7514 0.6485
vn 0.0461 -0.9979 -0.0458
vn 0.3194 -0.7134 -0.6238
vn 0.5134 -0.7134 -0.4769
vn 0.4272 -0.0112 -0.9041
vn 0.6456 -0.7133 -0.2726
vn 0.7106 -0.0112 -0.7035
vn 0.1125 -0.9936 -0.0030
vn 0.7560 -0.6523 -0.0548
vn 0.9084 -0.0113 -0.4180
vn 0.6771 -0.7128 0.1829
vn 0.9966 -0.0112 -0.0821
vn 0.5737 -0.7129 0.4033
vn 0.9646 -0.0112 0.2636
vn 0.3645 -0.7536 0.5470
vn 0.8162 -0.0112 0.5777
vn 0.0234 -0.9958 0.0882
vn 0.1564 -0.7133 0.6832
vn 0.5694 -0.0112 0.8220
vn -0.0773 -0.6523 0.7540
vn 0.2540 -0.0112 0.9671
vn -0.2916 -0.7535 0.5892
vn -0.0921 -0.0112 0.9957
vn -0.5621 -0.6708 0.4838
vn -0.4272 -0.0112 0.9041
vn -0.9079 -0.0147 0.4189
vn -0.7092 -0.0075 0.7050
vn -0.6988 -0.7128 0.0598
vn -0.6527 -0.7125 0.2574
vn -0.0912 -0.9958 -0.0029
vn -0.6770 -0.7129 -0.1829
vn -0.9966 -0.0111 0.0821
vn -0.5482 -0.7139 -0.4357
vn -0.9646 -0.0112 -0.2636
vn -0.5719 -0.0113 -0.8203
vn -0.8174 -0.0075 -0.5761
vn -0.0234 -0.9958 -0.0882
vn -0.3311 -0.7129 -0.6181
vn -0.2549 -0.0146 -0.9669
vn -0.1136 -0.7684 -0.6299
vn 0.0867 -0.7133 -0.6955
vn 0.0921 -0.0111 -0.9957
vn -0.0618 0.9894 0.1318
vn -0.0094 0.9999 0.0094
vn -0.0613 0.9895 0.1311
vn -0.0021 0.9997 0.0232
vn 0.0218 0.9940 0.1071
vn 0.0136 0.9998 0.0109
vn 0.0071 1.0000 -0.0033
vn 0.0625 0.9978 0.0209
vn 0.1443 0.9895 -0.0125
vn 0.0818 0.9940 -0.0724
vn 0.0024 1.0000 -0.0040
vn 0.0298 0.9895 -0.1416
vn -0.0148 0.9997 -0.0212
vn -0.0278 0.9994 -0.0221
vn -0.1344 0.9895 -0.0540
vn -0.0104 0.9999 0.0048
vn 0.0582 -0.9926 -0.1069
vn 0.0187 -0.9998 0.0063
vn -0.0190 -0.9992 0.0349
vn -0.1217 -0.9926 0.0032
vn -0.0243 -0.9926 -0.1193
vn 0.0578 -0.9926 -0.1071
vn 0.0017 -0.9999 -0.0114
vn 0.0576 -0.9927 -0.1063
vn 0.0403 -0.9984 -0.0403
vn 0.0260 -0.9996 -0.0121
vn 0.0183 -0.9998 0.0061
vn 0.0467 -0.9984 0.0328
vn 0.0916 -0.9871 0.1312
vn -0.0055 -0.9993 0.0370
vn -0.0188 -0.9992 0.0346
vn -0.1420 -0.9818 0.1258
vn -0.1209 -0.9927 0.0032
vn -0.0039 -1.0000 -0.0011
vn -0.1485 -0.9818 -0.1180
vn -0.0027 -1.0000 -0.0044
vn -0.0242 -0.9927 -0.1185
vt 0.963256 0.067461
vt 0.959158 0.074015
vt 0.963325 0.073971
vt 0.425773 0.278352
vt 0.427863 0.281881
vt 0.426439 0.277968
vt 0.423763 0.274777
vt 0.420157 0.272695
vt 0.423268 0.275367
vt 0.416056 0.271971
vt 0.419893 0.273418
vt 0.412218 0.273417
vt 0.411955 0.272693
vt 0.408841 0.275364
vt 0.408346 0.274774
vt 0.406337 0.278351
vt 0.405670 0.277966
vt 0.405004 0.282013
vt 0.404246 0.281879
vt 0.404246 0.286043
vt 0.406337 0.289572
vt 0.405671 0.289957
vt 0.408842 0.292557
vt 0.408347 0.293147
vt 0.412217 0.294506
vt 0.411953 0.295229
vt 0.416054 0.295953
vt 0.419892 0.294507
vt 0.420155 0.295231
vt 0.957409 0.029946
vt 0.961188 0.035569
vt 0.961242 0.029981
vt 0.423268 0.292560
vt 0.423763 0.293150
vt 0.427105 0.285912
vt 0.427863 0.286045
vt 0.959089 0.067233
vt 0.959093 0.067509
vt 0.963234 0.067180
vt 0.959086 0.066953
vt 0.954930 0.067271
vt 0.954933 0.067549
vt 0.954928 0.066988
vt 0.950769 0.067304
vt 0.950771 0.067583
vt 0.950767 0.067022
vt 0.946605 0.067333
vt 0.946607 0.067611
vt 0.946603 0.067050
vt 0.942438 0.067356
vt 0.942439 0.067635
vt 0.942437 0.067073
vt 0.938267 0.067375
vt 0.938268 0.067654
vt 0.938266 0.067091
vt 0.934090 0.067388
vt 0.934091 0.067667
vt 0.934089 0.067104
vt 0.929907 0.067675
vt 0.929907 0.067396
vt 0.929907 0.067112
vt 0.925717 0.067679
vt 0.925717 0.067399
vt 0.925717 0.067114
vt 0.921519 0.067396
vt 0.921519 0.067677
vt 0.921519 0.067111
vt 0.917314 0.067389
vt 0.917313 0.067670
vt 0.917314 0.067103
vt 0.913101 0.067658
vt 0.913102 0.067376
vt 0.913103 0.067090
vt 0.908884 0.067358
vt 0.908883 0.067640
vt 0.908886 0.067072
vt 0.904662 0.067335
vt 0.904661 0.067618
vt 0.904664 0.067049
vt 0.900437 0.067307
vt 0.900434 0.067590
vt 0.900439 0.067021
vt 0.896208 0.067274
vt 0.896205 0.067557
vt 0.896210 0.066988
vt 0.891978 0.067238
vt 0.891974 0.067519
vt 0.891981 0.066953
vt 0.887760 0.067185
vt 0.887738 0.067471
vt 0.887811 0.066900
vt 0.384352 0.321032
vt 0.388364 0.343786
vt 0.399917 0.334092
vt 0.953578 0.029917
vt 0.957360 0.035528
vt 0.945925 0.029876
vt 0.949717 0.035469
vt 0.949750 0.029894
vt 0.942104 0.029864
vt 0.945899 0.035446
vt 0.938289 0.029858
vt 0.942086 0.035428
vt 0.934479 0.029856
vt 0.938276 0.035413
vt 0.930676 0.029858
vt 0.934473 0.035402
vt 0.926881 0.029865
vt 0.930675 0.035395
vt 0.923094 0.029876
vt 0.926885 0.035390
vt 0.919314 0.029891
vt 0.923104 0.035390
vt 0.915541 0.029909
vt 0.919331 0.035394
vt 0.911773 0.029932
vt 0.915565 0.035404
vt 0.908010 0.029958
vt 0.911804 0.035420
vt 0.904250 0.029988
vt 0.908047 0.035440
vt 0.900492 0.030023
vt 0.904294 0.035466
vt 0.896736 0.030061
vt 0.900543 0.035497
vt 0.892981 0.030102
vt 0.896794 0.035534
vt 0.953537 0.035496
vt 0.961167 0.035851
vt 0.957354 0.036067
vt 0.957357 0.035805
vt 0.953535 0.035775
vt 0.953534 0.036038
vt 0.949714 0.036011
vt 0.949715 0.035747
vt 0.945898 0.035725
vt 0.942083 0.035969
vt 0.942084 0.035706
vt 0.938275 0.035691
vt 0.938275 0.035954
vt 0.934472 0.035680
vt 0.934471 0.035942
vt 0.930675 0.035672
vt 0.930674 0.035934
vt 0.926885 0.035667
vt 0.923105 0.035926
vt 0.923105 0.035666
vt 0.919332 0.035670
vt 0.915566 0.035679
vt 0.919333 0.035930
vt 0.911805 0.035694
vt 0.911807 0.035954
vt 0.908049 0.035715
vt 0.908051 0.035974
vt 0.904296 0.035740
vt 0.900546 0.035771
vt 0.904298 0.035999
vt 0.896798 0.035806
vt 0.896801 0.036063
vt 0.893062 0.035856
vt 0.893042 0.035580
vt 0.410190 0.336203
vt 0.422978 0.340858
vt 0.429783 0.329072
vt 0.921520 0.074248
vt 0.925728 0.074238
vt 0.917306 0.074252
vt 0.913084 0.074249
vt 0.908858 0.074239
vt 0.904626 0.074224
vt 0.900391 0.074201
vt 0.896152 0.074172
vt 0.891912 0.074137
vt 0.426440 0.289958
vt 0.887670 0.074095
vt 0.954991 0.074055
vt 0.950823 0.074092
vt 0.946652 0.074126
vt 0.942478 0.074155
vt 0.938299 0.074181
vt 0.934115 0.074204
vt 0.929925 0.074223
vt 0.423969 0.293396
vt 0.426579 0.290039
vt 0.423867 0.293273
vt 0.428178 0.286101
vt 0.426717 0.290118
vt 0.428178 0.281825
vt 0.428022 0.286073
vt 0.426716 0.277808
vt 0.428022 0.281853
vt 0.426579 0.277887
vt 0.423968 0.274532
vt 0.423866 0.274654
vt 0.420212 0.272544
vt 0.416056 0.271652
vt 0.420266 0.272395
vt 0.411845 0.272393
vt 0.416056 0.271810
vt 0.408140 0.274528
vt 0.411900 0.272542
vt 0.408243 0.274651
vt 0.405393 0.277806
vt 0.405531 0.277885
vt 0.404088 0.281851
vt 0.403931 0.281824
vt 0.404088 0.286071
vt 0.403931 0.286099
vt 0.405531 0.290037
vt 0.408141 0.293392
vt 0.405394 0.290116
vt 0.408244 0.293270
vt 0.411844 0.295530
vt 0.411898 0.295380
vt 0.416054 0.296273
vt 0.420265 0.295531
vt 0.416054 0.296114
vt 0.420210 0.295382
vt 0.425773 0.289574
vt 0.423165 0.292436
vt 0.425634 0.289493
vt 0.423063 0.292316
vt 0.426947 0.285884
vt 0.425497 0.289415
vt 0.427105 0.282015
vt 0.426947 0.282042
vt 0.426792 0.285856
vt 0.425634 0.278433
vt 0.426792 0.282070
vt 0.423165 0.275490
vt 0.425497 0.278511
vt 0.419838 0.273569
vt 0.423064 0.275611
vt 0.416056 0.272741
vt 0.416056 0.272902
vt 0.419784 0.273717
vt 0.412273 0.273568
vt 0.416056 0.273059
vt 0.408945 0.275488
vt 0.412326 0.273716
vt 0.406476 0.278431
vt 0.409046 0.275608
vt 0.405318 0.282068
vt 0.406612 0.278510
vt 0.405163 0.285882
vt 0.405163 0.282041
vt 0.405004 0.285910
vt 0.406476 0.289491
vt 0.405318 0.285854
vt 0.408945 0.292434
vt 0.406612 0.289413
vt 0.412325 0.294207
vt 0.409046 0.292314
vt 0.416054 0.295183
vt 0.412272 0.294355
vt 0.416054 0.294865
vt 0.416054 0.295023
vt 0.419837 0.294356
vt 0.419784 0.294208
vt 0.963184 0.066900
vt 0.398524 0.326190
vt 0.395905 0.323069
vt 0.392377 0.321032
vt 0.388364 0.320324
vt 0.380824 0.323069
vt 0.376812 0.334092
vt 0.378205 0.326190
vt 0.376812 0.330018
vt 0.378205 0.337921
vt 0.380824 0.341042
vt 0.384352 0.343079
vt 0.392377 0.343079
vt 0.395905 0.341042
vt 0.398524 0.337921
vt 0.399917 0.330018
vt 0.961122 0.036114
vt 0.945897 0.035988
vt 0.926884 0.035928
vt 0.915567 0.035939
vt 0.900548 0.036030
vt 0.893107 0.036114
vt 0.412553 0.322801
vt 0.410190 0.325617
vt 0.408932 0.329072
vt 0.408932 0.332748
vt 0.412553 0.339019
vt 0.415737 0.340858
vt 0.419357 0.341496
vt 0.426162 0.339019
vt 0.428525 0.336203
vt 0.429783 0.332748
vt 0.428525 0.325617
vt 0.426162 0.322801
vt 0.422978 0.320962
vt 0.419357 0.320324
vt 0.415737 0.320962
s 1
usemtl Checker
f 1/1/1 2/2/2 3/3/3
f 4/4/4 5/5/5 6/6/6
f 7/7/7 4/4/4 6/6/6
f 8/8/8 9/9/9 7/7/7
f 10/10/10 11/11/11 8/8/8
f 12/12/12 10/10/10 13/13/13
f 14/14/14 13/13/13 15/15/15
f 16/16/16 15/15/15 17/17/17
f 18/18/18 17/17/17 19/19/19
f 20/20/20 18/18/18 19/19/19
f 21/21/21 20/20/20 22/22/22
f 23/23/23 22/22/22 24/24/24
f 25/25/25 24/24/24 26/26/26
f 27/27/27 25/25/25 26/26/26
f 28/28/28 27/27/27 29/29/29
f 30/30/30 31/31/31 32/32/32
f 33/33/33 29/29/29 34/34/34
f 5/5/5 35/35/35 36/36/36
f 1/1/1 37/37/37 38/38/38
f 39/39/39 40/40/40 37/37/37
f 38/38/38 41/41/41 42/42/42
f 37/37/37 43/43/43 41/41/41
f 42/42/42 44/44/44 45/45/45
f 41/41/41 46/46/46 44/44/44
f 45/45/45 47/47/47 48/48/48
f 47/47/47 46/46/46 49/49/49
f 48/48/48 50/50/50 51/51/51
f 50/50/50 49/49/49 52/52/52
f 51/51/51 53/53/53 54/54/54
f 50/50/50 55/55/55 53/53/53
f 54/54/54 56/56/56 57/57/57
f 53/53/53 58/58/58 56/56/56
f 59/59/59 56/56/56 60/60/60
f 60/60/60 58/58/58 61/61/61
f 62/62/62 60/60/60 63/63/63
f 63/63/63 61/61/61 64/64/64
f 62/62/62 65/65/65 66/66/66
f 65/65/65 64/64/64 67/67/67
f 66/66/66 68/68/68 69/69/69
f 65/65/65 70/70/70 68/68/68
f 71/71/71 68/68/68 72/72/72
f 68/68/68 73/73/73 72/72/72
f 71/71/71 74/74/74 75/75/75
f 72/72/72 76/76/76 74/74/74
f 75/75/75 77/77/77 78/78/78
f 77/77/77 76/76/76 79/79/79
f 78/78/78 80/80/80 81/81/81
f 77/77/77 82/82/82 80/80/80
f 81/81/81 83/83/83 84/84/84
f 83/83/83 82/82/82 85/85/85
f 84/84/84 86/86/86 87/87/87
f 83/83/83 88/88/88 86/86/86
f 87/87/87 89/89/89 90/90/90
f 86/86/86 91/91/91 89/89/89
f 92/92/92 93/93/93 94/94/94
f 95/95/95 96/96/96 30/30/30
f 97/97/97 98/98/98 99/99/99
f 100/100/100 101/101/101 97/97/97
f 102/102/102 103/103/103 100/100/100
f 104/104/104 105/105/105 102/102/102
f 106/106/106 107/107/107 104/104/104
f 108/108/108 109/109/109 106/106/106
f 110/110/110 111/111/111 108/108/108
f 112/112/112 113/113/113 110/110/110
f 114/114/114 115/115/115 112/112/112
f 116/116/116 117/117/117 114/114/114
f 118/118/118 119/119/119 116/116/116
f 120/120/120 121/121/121 118/118/118
f 122/122/122 123/123/123 120/120/120
f 124/124/124 125/125/125 122/122/122
f 126/126/126 127/127/127 124/124/124
f 99/99/99 128/128/128 95/95/95
f 96/96/96 129/129/129 31/31/31
f 130/130/130 129/129/129 131/131/131
f 132/132/132 96/96/96 128/128/128
f 133/133/133 131/131/131 132/132/132
f 98/98/98 132/132/132 128/128/128
f 134/134/134 132/132/132 135/135/135
f 101/101/101 135/135/135 98/98/98
f 136/136/136 134/134/134 135/135/135
f 103/103/103 136/136/136 101/101/101
f 137/137/137 136/136/136 138/138/138
f 139/139/139 103/103/103 105/105/105
f 140/140/140 138/138/138 139/139/139
f 141/141/141 105/105/105 107/107/107
f 142/142/142 139/139/139 141/141/141
f 143/143/143 107/107/107 109/109/109
f 144/144/144 141/141/141 143/143/143
f 145/145/145 109/109/109 111/111/111
f 145/145/145 144/144/144 143/143/143
f 113/113/113 145/145/145 111/111/111
f 146/146/146 145/145/145 147/147/147
f 115/115/115 147/147/147 113/113/113
f 148/148/148 146/146/146 147/147/147
f 149/149/149 115/115/115 117/117/117
f 149/149/149 150/150/150 148/148/148
f 151/151/151 117/117/117 119/119/119
f 152/152/152 149/149/149 151/151/151
f 153/153/153 119/119/119 121/121/121
f 154/154/154 151/151/151 153/153/153
f 123/123/123 153/153/153 121/121/121
f 155/155/155 154/154/154 153/153/153
f 156/156/156 123/123/123 125/125/125
f 156/156/156 157/157/157 155/155/155
f 158/158/158 125/125/125 127/127/127
f 159/159/159 156/156/156 158/158/158
f 160/160/160 127/127/127 161/161/161
f 160/160/160 159/159/159 158/158/158
f 162/162/162 163/163/163 164/164/164
f 62/62/62 165/165/165 166/166/166
f 66/66/66 167/167/167 165/165/165
f 69/69/69 168/168/168 167/167/167
f 71/71/71 169/169/169 168/168/168
f 75/75/75 170/170/170 169/169/169
f 78/78/78 171/171/171 170/170/170
f 81/81/81 172/172/172 171/171/171
f 84/84/84 173/173/173 172/172/172
f 35/35/35 174/174/174 36/36/36
f 87/87/87 175/175/175 173/173/173
f 38/38/38 176/176/176 2/2/2
f 42/42/42 177/177/177 176/176/176
f 45/45/45 178/178/178 177/177/177
f 48/48/48 179/179/179 178/178/178
f 51/51/51 180/180/180 179/179/179
f 54/54/54 181/181/181 180/180/180
f 57/57/57 182/182/182 181/181/181
f 59/59/59 166/166/166 182/182/182
f 183/183/183 184/184/184 185/185/185
f 184/184/184 34/34/34 185/185/185
f 186/186/186 184/184/184 187/187/187
f 184/184/184 36/36/36 174/174/174
f 188/188/188 189/189/189 186/186/186
f 189/189/189 5/5/5 36/36/36
f 190/190/190 191/191/191 188/188/188
f 192/192/192 5/5/5 191/191/191
f 193/193/193 192/192/192 190/190/190
f 194/194/194 6/6/6 192/192/192
f 193/193/193 195/195/195 194/194/194
f 194/194/194 8/8/8 7/7/7
f 196/196/196 195/195/195 197/197/197
f 195/195/195 10/10/10 8/8/8
f 198/198/198 199/199/199 196/196/196
f 199/199/199 13/13/13 10/10/10
f 200/200/200 201/201/201 198/198/198
f 202/202/202 13/13/13 201/201/201
f 203/203/203 202/202/202 200/200/200
f 204/204/204 15/15/15 202/202/202
f 203/203/203 205/205/205 204/204/204
f 205/205/205 17/17/17 204/204/204
f 206/206/206 207/207/207 205/205/205
f 207/207/207 19/19/19 205/205/205
f 208/208/208 209/209/209 207/207/207
f 209/209/209 20/20/20 207/207/207
f 210/210/210 209/209/209 211/211/211
f 212/212/212 22/22/22 209/209/209
f 213/213/213 212/212/212 210/210/210
f 214/214/214 24/24/24 212/212/212
f 215/215/215 214/214/214 213/213/213
f 214/214/214 27/27/27 26/26/26
f 216/216/216 217/217/217 215/215/215
f 218/218/218 27/27/27 217/217/217
f 183/183/183 218/218/218 216/216/216
f 218/218/218 34/34/34 29/29/29
f 219/219/219 220/220/220 33/33/33
f 221/221/221 222/222/222 220/220/220
f 35/35/35 221/221/221 219/219/219
f 223/223/223 224/224/224 221/221/221
f 225/225/225 223/223/223 35/35/35
f 226/226/226 227/227/227 223/223/223
f 225/225/225 228/228/228 226/226/226
f 228/228/228 229/229/229 226/226/226
f 4/4/4 230/230/230 228/228/228
f 230/230/230 231/231/231 228/228/228
f 9/9/9 232/232/232 230/230/230
f 232/232/232 233/233/233 230/230/230
f 234/234/234 232/232/232 11/11/11
f 235/235/235 236/236/236 232/232/232
f 12/12/12 235/235/235 234/234/234
f 237/237/237 238/238/238 235/235/235
f 12/12/12 239/239/239 237/237/237
f 239/239/239 240/240/240 237/237/237
f 16/16/16 239/239/239 14/14/14
f 241/241/241 242/242/242 239/239/239
f 18/18/18 241/241/241 16/16/16
f 241/241/241 243/243/243 244/244/244
f 18/18/18 245/245/245 246/246/246
f 245/245/245 243/243/243 246/246/246
f 247/247/247 248/248/248 245/245/245
f 248/248/248 249/249/249 245/245/245
f 21/21/21 250/250/250 248/248/248
f 250/250/250 251/251/251 248/248/248
f 25/25/25 250/250/250 23/23/23
f 250/250/250 252/252/252 253/253/253
f 254/254/254 255/255/255 25/25/25
f 255/255/255 256/256/256 252/252/252
f 28/28/28 257/257/257 254/254/254
f 258/258/258 256/256/256 257/257/257
f 33/33/33 258/258/258 28/28/28
f 220/220/220 259/259/259 258/258/258
f 219/219/219 34/34/34 174/174/174
f 1/1/1 38/38/38 2/2/2
f 4/4/4 225/225/225 5/5/5
f 7/7/7 9/9/9 4/4/4
f 8/8/8 11/11/11 9/9/9
f 10/10/10 234/234/234 11/11/11
f 12/12/12 234/234/234 10/10/10
f 14/14/14 12/12/12 13/13/13
f 16/16/16 14/14/14 15/15/15
f 18/18/18 16/16/16 17/17/17
f 20/20/20 247/247/247 18/18/18
f 21/21/21 247/247/247 20/20/20
f 23/23/23 21/21/21 22/22/22
f 25/25/25 23/23/23 24/24/24
f 27/27/27 254/254/254 25/25/25
f 28/28/28 254/254/254 27/27/27
f 30/30/30 96/96/96 31/31/31
f 33/33/33 28/28/28 29/29/29
f 5/5/5 225/225/225 35/35/35
f 1/1/1 39/39/39 37/37/37
f 39/39/39 260/260/260 40/40/40
f 38/38/38 37/37/37 41/41/41
f 37/37/37 40/40/40 43/43/43
f 42/42/42 41/41/41 44/44/44
f 41/41/41 43/43/43 46/46/46
f 45/45/45 44/44/44 47/47/47
f 47/47/47 44/44/44 46/46/46
f 48/48/48 47/47/47 50/50/50
f 50/50/50 47/47/47 49/49/49
f 51/51/51 50/50/50 53/53/53
f 50/50/50 52/52/52 55/55/55
f 54/54/54 53/53/53 56/56/56
f 53/53/53 55/55/55 58/58/58
f 59/59/59 57/57/57 56/56/56
f 60/60/60 56/56/56 58/58/58
f 62/62/62 59/59/59 60/60/60
f 63/63/63 60/60/60 61/61/61
f 62/62/62 63/63/63 65/65/65
f 65/65/65 63/63/63 64/64/64
f 66/66/66 65/65/65 68/68/68
f 65/65/65 67/67/67 70/70/70
f 71/71/71 69/69/69 68/68/68
f 68/68/68 70/70/70 73/73/73
f 71/71/71 72/72/72 74/74/74
f 72/72/72 73/73/73 76/76/76
f 75/75/75 74/74/74 77/77/77
f 77/77/77 74/74/74 76/76/76
f 78/78/78 77/77/77 80/80/80
f 77/77/77 79/79/79 82/82/82
f 81/81/81 80/80/80 83/83/83
f 83/83/83 80/80/80 82/82/82
f 84/84/84 83/83/83 86/86/86
f 83/83/83 85/85/85 88/88/88
f 87/87/87 86/86/86 89/89/89
f 86/86/86 88/88/88 91/91/91
f 261/261/261 262/262/262 263/263/263
f 263/263/263 264/264/264 92/92/92
f 92/92/92 265/265/265 266/266/266
f 265/265/265 267/267/267 266/266/266
f 267/267/267 268/268/268 266/266/266
f 266/266/266 269/269/269 270/270/270
f 270/270/270 271/271/271 93/93/93
f 93/93/93 272/272/272 94/94/94
f 272/272/272 273/273/273 94/94/94
f 273/273/273 274/274/274 94/94/94
f 94/94/94 275/275/275 92/92/92
f 275/275/275 261/261/261 92/92/92
f 261/261/261 263/263/263 92/92/92
f 266/266/266 270/270/270 92/92/92
f 270/270/270 93/93/93 92/92/92
f 95/95/95 128/128/128 96/96/96
f 97/97/97 101/101/101 98/98/98
f 100/100/100 103/103/103 101/101/101
f 102/102/102 105/105/105 103/103/103
f 104/104/104 107/107/107 105/105/105
f 106/106/106 109/109/109 107/107/107
f 108/108/108 111/111/111 109/109/109
f 110/110/110 113/113/113 111/111/111
f 112/112/112 115/115/115 113/113/113
f 114/114/114 117/117/117 115/115/115
f 116/116/116 119/119/119 117/117/117
f 118/118/118 121/121/121 119/119/119
f 120/120/120 123/123/123 121/121/121
f 122/122/122 125/125/125 123/123/123
f 124/124/124 127/127/127 125/125/125
f 126/126/126 161/161/161 127/127/127
f 99/99/99 98/98/98 128/128/128
f 96/96/96 131/131/131 129/129/129
f 130/130/130 276/276/276 129/129/129
f 132/132/132 131/131/131 96/96/96
f 133/133/133 130/130/130 131/131/131
f 98/98/98 135/135/135 132/132/132
f 134/134/134 133/133/133 132/132/132
f 101/101/101 136/136/136 135/135/135
f 136/136/136 277/277/277 134/134/134
f 103/103/103 138/138/138 136/136/136
f 137/137/137 277/277/277 136/136/136
f 139/139/139 138/138/138 103/103/103
f 140/140/140 137/137/137 138/138/138
f 141/141/141 139/139/139 105/105/105
f 142/142/142 140/140/140 139/139/139
f 143/143/143 141/141/141 107/107/107
f 144/144/144 142/142/142 141/141/141
f 145/145/145 143/143/143 109/109/109
f 145/145/145 278/278/278 144/144/144
f 113/113/113 147/147/147 145/145/145
f 146/146/146 278/278/278 145/145/145
f 115/115/115 148/148/148 147/147/147
f 148/148/148 150/150/150 146/146/146
f 149/149/149 148/148/148 115/115/115
f 149/149/149 279/279/279 150/150/150
f 151/151/151 149/149/149 117/117/117
f 152/152/152 279/279/279 149/149/149
f 153/153/153 151/151/151 119/119/119
f 154/154/154 152/152/152 151/151/151
f 123/123/123 155/155/155 153/153/153
f 155/155/155 157/157/157 154/154/154
f 156/156/156 155/155/155 123/123/123
f 156/156/156 280/280/280 157/157/157
f 158/158/158 156/156/156 125/125/125
f 159/159/159 280/280/280 156/156/156
f 160/160/160 158/158/158 127/127/127
f 160/160/160 281/281/281 159/159/159
f 282/282/282 283/283/283 284/284/284
f 284/284/284 285/285/285 282/282/282
f 285/285/285 162/162/162 282/282/282
f 162/162/162 286/286/286 163/163/163
f 286/286/286 287/287/287 163/163/163
f 287/287/287 288/288/288 163/163/163
f 163/163/163 289/289/289 164/164/164
f 289/289/289 290/290/290 164/164/164
f 290/290/290 291/291/291 164/164/164
f 164/164/164 292/292/292 293/293/293
f 293/293/293 294/294/294 295/295/295
f 295/295/295 296/296/296 282/282/282
f 164/164/164 293/293/293 162/162/162
f 293/293/293 295/295/295 162/162/162
f 295/295/295 282/282/282 162/162/162
f 62/62/62 66/66/66 165/165/165
f 66/66/66 69/69/69 167/167/167
f 69/69/69 71/71/71 168/168/168
f 71/71/71 75/75/75 169/169/169
f 75/75/75 78/78/78 170/170/170
f 78/78/78 81/81/81 171/171/171
f 81/81/81 84/84/84 172/172/172
f 84/84/84 87/87/87 173/173/173
f 35/35/35 219/219/219 174/174/174
f 87/87/87 90/90/90 175/175/175
f 38/38/38 42/42/42 176/176/176
f 42/42/42 45/45/45 177/177/177
f 45/45/45 48/48/48 178/178/178
f 48/48/48 51/51/51 179/179/179
f 51/51/51 54/54/54 180/180/180
f 54/54/54 57/57/57 181/181/181
f 57/57/57 59/59/59 182/182/182
f 59/59/59 62/62/62 166/166/166
f 183/183/183 187/187/187 184/184/184
f 184/184/184 174/174/174 34/34/34
f 186/186/186 189/189/189 184/184/184
f 184/184/184 189/189/189 36/36/36
f 188/188/188 191/191/191 189/189/189
f 189/189/189 191/191/191 5/5/5
f 190/190/190 192/192/192 191/191/191
f 192/192/192 6/6/6 5/5/5
f 193/193/193 194/194/194 192/192/192
f 194/194/194 7/7/7 6/6/6
f 193/193/193 197/197/197 195/195/195
f 194/194/194 195/195/195 8/8/8
f 196/196/196 199/199/199 195/195/195
f 195/195/195 199/199/199 10/10/10
f 198/198/198 201/201/201 199/199/199
f 199/199/199 201/201/201 13/13/13
f 200/200/200 202/202/202 201/201/201
f 202/202/202 15/15/15 13/13/13
f 203/203/203 204/204/204 202/202/202
f 204/204/204 17/17/17 15/15/15
f 203/203/203 206/206/206 205/205/205
f 205/205/205 19/19/19 17/17/17
f 206/206/206 208/208/208 207/207/207
f 207/207/207 20/20/20 19/19/19
f 208/208/208 211/211/211 209/209/209
f 209/209/209 22/22/22 20/20/20
f 210/210/210 212/212/212 209/209/209
f 212/212/212 24/24/24 22/22/22
f 213/213/213 214/214/214 212/212/212
f 214/214/214 26/26/26 24/24/24
f 215/215/215 217/217/217 214/214/214
f 214/214/214 217/217/217 27/27/27
f 216/216/216 218/218/218 217/217/217
f 218/218/218 29/29/29 27/27/27
f 183/183/183 185/185/185 218/218/218
f 218/218/218 185/185/185 34/34/34
f 219/219/219 221/221/221 220/220/220
f 221/221/221 224/224/224 222/222/222
f 35/35/35 223/223/223 221/221/221
f 223/223/223 227/227/227 224/224/224
f 225/225/225 226/226/226 223/223/223
f 226/226/226 229/229/229 227/227/227
f 225/225/225 4/4/4 228/228/228
f 228/228/228 231/231/231 229/229/229
f 4/4/4 9/9/9 230/230/230
f 230/230/230 233/233/233 231/231/231
f 9/9/9 11/11/11 232/232/232
f 232/232/232 236/236/236 233/233/233
f 234/234/234 235/235/235 232/232/232
f 235/235/235 238/238/238 236/236/236
f 12/12/12 237/237/237 235/235/235
f 237/237/237 240/240/240 238/238/238
f 12/12/12 14/14/14 239/239/239
f 239/239/239 242/242/242 240/240/240
f 16/16/16 241/241/241 239/239/239
f 241/241/241 244/244/244 242/242/242
f 18/18/18 246/246/246 241/241/241
f 241/241/241 246/246/246 243/243/243
f 18/18/18 247/247/247 245/245/245
f 245/245/245 249/249/249 243/243/243
f 247/247/247 21/21/21 248/248/248
f 248/248/248 251/251/251 249/249/249
f 21/21/21 23/23/23 250/250/250
f 250/250/250 253/253/253 251/251/251
f 25/25/25 255/255/255 250/250/250
f 250/250/250 255/255/255 252/252/252
f 254/254/254 257/257/257 255/255/255
f 255/255/255 257/257/257 256/256/256
f 28/28/28 258/258/258 257/257/257
f 258/258/258 259/259/259 256/256/256
f 33/33/33 220/220/220 258/258/258
f 220/220/220 222/222/222 259/259/259
f 219/219/219 33/33/33 34/34/34
