# Blender 4.4.0
# www.blender.org
mtllib White.mtl
o Checker2_Checker2_0
v 0.171289 0.222223 0.747168
v -0.101532 -0.204543 0.761046
v 0.171289 -0.204543 0.747168
v -0.670779 -0.217912 0.262109
v -0.570617 -0.217911 0.506800
v -0.716484 -0.217912 0.281427
v -0.726916 -0.217912 0.017235
v -0.776473 -0.217912 0.019756
v -0.743347 -0.217912 -0.246652
v -0.621103 -0.217912 -0.485663
v -0.695917 -0.217912 -0.232071
v -0.424483 -0.217912 -0.668450
v -0.581519 -0.217912 -0.455739
v -0.166116 -0.217912 -0.724600
v -0.177205 -0.217912 -0.772966
v 0.084785 -0.217912 -0.737363
v 0.090907 -0.217912 -0.786604
v 0.324921 -0.217912 -0.663543
v 0.347516 -0.217912 -0.707721
v 0.525325 -0.217912 -0.512043
v 0.561669 -0.217912 -0.545829
v 0.661830 -0.217912 -0.301138
v 0.707536 -0.217912 -0.320456
v 0.717968 -0.217912 -0.056264
v 0.767525 -0.217912 -0.058785
v 0.686967 -0.217912 0.193042
v 0.734398 -0.217912 0.207622
v 0.572571 -0.217912 0.416710
v 0.612153 -0.217911 0.446634
v 0.415535 -0.217911 0.629421
v -0.092059 -0.204543 0.684862
v 0.154134 0.154991 0.672339
v 0.154134 -0.204543 0.672339
v 0.168255 -0.217911 0.733937
v 0.388573 -0.217911 0.587763
v -0.534275 -0.217911 0.473014
v -0.356464 -0.217911 0.668691
v -0.100660 0.239010 0.754039
v -0.101532 0.222223 0.761046
v 0.165902 0.245964 0.723669
v -0.098557 0.245964 0.737122
v -0.362645 0.222223 0.680777
v -0.359430 0.239010 0.674490
v -0.351668 0.245964 0.659313
v -0.575387 0.239010 0.511234
v -0.580559 0.222223 0.516042
v -0.562903 0.245964 0.499628
v -0.728989 0.222223 0.286712
v -0.722485 0.239010 0.283963
v -0.706782 0.245964 0.277326
v -0.790030 0.222223 0.020445
v -0.782978 0.239010 0.020087
v -0.765953 0.245964 0.019221
v -0.756322 0.222223 -0.250640
v -0.749574 0.239010 -0.248566
v -0.733278 0.245964 -0.243557
v -0.626298 0.239010 -0.489591
v -0.631930 0.222223 -0.493849
v -0.612701 0.245964 -0.479311
v -0.431859 0.222223 -0.679846
v -0.428022 0.239010 -0.673918
v -0.418759 0.245964 -0.659607
v -0.180237 0.222223 -0.786197
v -0.178660 0.239010 -0.779315
v -0.174851 0.245964 -0.762699
v 0.091712 0.239010 -0.793068
v 0.092583 0.222223 -0.800075
v 0.089609 0.245964 -0.776152
v 0.350482 0.239010 -0.713520
v 0.353698 0.222223 -0.719806
v 0.342720 0.245964 -0.698343
v 0.571611 0.222223 -0.555072
v 0.566440 0.239010 -0.550264
v 0.553953 0.245964 -0.538657
v 0.720039 0.222223 -0.325741
v 0.713536 0.239010 -0.322992
v 0.697834 0.245964 -0.316355
v 0.774030 0.239010 -0.059116
v 0.781083 0.222223 -0.059475
v 0.757005 0.245964 -0.058250
v 0.740624 0.239010 0.209536
v 0.747374 0.222223 0.211611
v 0.724331 0.245964 0.204527
v 0.622982 0.222223 0.454820
v 0.617350 0.239010 0.450562
v 0.603751 0.245964 0.440281
v 0.419074 0.239010 0.634889
v 0.422911 0.222223 0.640816
v 0.409811 0.245964 0.620578
v 0.169711 0.239010 0.740286
v 0.171289 0.222223 0.747168
v 0.165902 0.245964 0.723669
v 0.724331 0.245964 0.204527
v 0.342720 0.245964 -0.698343
v -0.612701 0.245964 -0.479311
v -0.327687 -0.204543 0.612427
v -0.092059 0.154991 0.684862
v -0.658275 -0.204543 0.256824
v -0.524333 0.154991 0.463771
v -0.524333 -0.204543 0.463771
v -0.713359 -0.204544 0.016545
v -0.658275 0.154991 0.256823
v -0.682942 -0.204544 -0.228082
v -0.713359 0.154991 0.016545
v -0.570690 -0.204544 -0.447553
v -0.682942 0.154990 -0.228082
v -0.390145 -0.204544 -0.615397
v -0.570690 0.154990 -0.447553
v -0.163084 -0.204544 -0.711368
v -0.390145 0.154990 -0.615397
v 0.083111 -0.204544 -0.723892
v -0.163084 0.154990 -0.711368
v 0.318739 -0.204544 -0.651457
v 0.083111 0.154990 -0.723892
v 0.515383 -0.204544 -0.502800
v 0.318739 0.154990 -0.651457
v 0.649325 -0.204544 -0.295853
v 0.515383 0.154990 -0.502801
v 0.704411 -0.204544 -0.055575
v 0.649325 0.154990 -0.295853
v 0.673993 -0.204543 0.189053
v 0.704411 0.154991 -0.055575
v 0.561742 -0.204543 0.408524
v 0.673993 0.154991 0.189053
v 0.381197 -0.204543 0.576367
v 0.561742 0.154991 0.408524
v 0.154134 -0.204543 0.672339
v 0.381197 0.154991 0.576367
v -0.327687 0.154991 0.612427
v -0.091272 0.171780 0.678539
v -0.089375 0.178732 0.663274
v 0.152711 0.171780 0.666128
v -0.324787 0.171780 0.606754
v -0.317781 0.178732 0.593059
v -0.519665 0.171780 0.459433
v -0.508398 0.178732 0.448959
v -0.652406 0.171779 0.254343
v -0.706996 0.171779 0.016222
v -0.638235 0.178732 0.248354
v -0.662146 0.178732 -0.221690
v -0.676850 0.171779 -0.226210
v -0.553336 0.178732 -0.434434
v -0.565608 0.171779 -0.443711
v -0.386683 0.171779 -0.610048
v -0.158222 0.178732 -0.690163
v -0.161659 0.171779 -0.705157
v 0.082324 0.171779 -0.717568
v 0.080425 0.178732 -0.702303
v 0.315837 0.171779 -0.645784
v 0.308833 0.178732 -0.632088
v 0.499451 0.178732 -0.487988
v 0.510718 0.171779 -0.498462
v 0.629287 0.178732 -0.287383
v 0.643457 0.171779 -0.293372
v 0.698047 0.171779 -0.055251
v 0.682683 0.178732 -0.054469
v 0.667902 0.171779 0.187180
v 0.556659 0.171780 0.404681
v 0.653198 0.178732 0.182660
v 0.377735 0.171780 0.571018
v 0.369376 0.178732 0.558104
v 0.152711 0.171780 0.666128
v 0.154134 0.154991 0.672339
v 0.149272 0.178732 0.651134
v -0.508398 0.178732 0.448959
v 0.308833 0.178732 -0.632088
v 0.653198 0.178732 0.182660
v 0.092583 -0.204544 -0.800075
v -0.180237 -0.204544 -0.786197
v 0.353698 -0.204544 -0.719806
v 0.571611 -0.204544 -0.555072
v 0.720039 -0.204544 -0.325741
v 0.781083 -0.204544 -0.059475
v 0.747374 -0.204543 0.211611
v 0.622982 -0.204543 0.454820
v 0.422911 -0.204543 0.640817
v -0.333869 -0.217911 0.624513
v -0.099857 -0.217911 0.747575
v 0.171289 -0.204543 0.747168
v -0.362645 -0.204543 0.680777
v -0.580559 -0.204543 0.516042
v -0.728989 -0.204543 0.286712
v -0.790030 -0.204544 0.020446
v -0.756322 -0.204544 -0.250640
v -0.631930 -0.204544 -0.493849
v -0.431859 -0.204544 -0.679846
v 0.171289 -0.204543 0.747168
v -0.101041 -0.213995 0.757101
v 0.170401 -0.213995 0.743293
v -0.362645 -0.204543 0.680777
v -0.101532 -0.204543 0.761046
v -0.360836 -0.213995 0.677237
v -0.580559 -0.204543 0.516042
v -0.577648 -0.213995 0.513335
v -0.728989 -0.204543 0.286712
v -0.725327 -0.213996 0.285164
v -0.790030 -0.204544 0.020446
v -0.786059 -0.213996 0.020244
v -0.756322 -0.204544 -0.250640
v -0.628760 -0.213996 -0.491451
v -0.752522 -0.213996 -0.249472
v -0.431859 -0.204544 -0.679846
v -0.631930 -0.204544 -0.493849
v -0.179349 -0.213996 -0.782322
v -0.429699 -0.213996 -0.676508
v 0.092583 -0.204544 -0.800075
v -0.180237 -0.204544 -0.786197
v 0.092093 -0.213996 -0.796130
v 0.351886 -0.213996 -0.716266
v 0.353698 -0.204544 -0.719806
v 0.568698 -0.213996 -0.552364
v 0.571611 -0.204544 -0.555072
v 0.716377 -0.213996 -0.324193
v 0.720039 -0.204544 -0.325741
v 0.777111 -0.213996 -0.059273
v 0.747374 -0.204543 0.211611
v 0.781083 -0.204544 -0.059475
v 0.743575 -0.213996 0.210443
v 0.622982 -0.204543 0.454820
v 0.619810 -0.213995 0.452422
v 0.422911 -0.204543 0.640817
v 0.420751 -0.213995 0.637479
v -0.093734 -0.217911 0.698333
v 0.155023 -0.213995 0.676214
v 0.157169 -0.217911 0.685570
v -0.092549 -0.213995 0.688808
v 0.154134 -0.204543 0.672339
v -0.327687 -0.204543 0.612427
v -0.092059 -0.204543 0.684862
v -0.329499 -0.213995 0.615967
v -0.524333 -0.204543 0.463771
v -0.527245 -0.213995 0.466478
v -0.661937 -0.213996 0.258372
v -0.717330 -0.213996 0.016747
v -0.658275 -0.204543 0.256824
v -0.686742 -0.213996 -0.229250
v -0.682942 -0.204544 -0.228082
v -0.713359 -0.204544 0.016545
v -0.573862 -0.213996 -0.449951
v -0.392305 -0.213996 -0.618735
v -0.570690 -0.204544 -0.447553
v -0.397521 -0.217912 -0.626793
v -0.163971 -0.213996 -0.715243
v -0.390145 -0.204544 -0.615397
v 0.083601 -0.213996 -0.727837
v -0.163084 -0.204544 -0.711368
v 0.320549 -0.213996 -0.654997
v 0.318739 -0.204544 -0.651457
v 0.083111 -0.204544 -0.723892
v 0.518296 -0.213996 -0.505508
v 0.652987 -0.213996 -0.297401
v 0.515383 -0.204544 -0.502800
v 0.708380 -0.213996 -0.055777
v 0.649325 -0.204544 -0.295853
v 0.677792 -0.213996 0.190221
v 0.673993 -0.204543 0.189053
v 0.704411 -0.204544 -0.055575
v 0.564914 -0.213995 0.410922
v 0.383357 -0.213995 0.579705
v 0.561742 -0.204543 0.408524
v 0.381197 -0.204543 0.576367
v 0.169711 0.239010 0.740286
v -0.098557 0.245964 0.737122
v 0.165902 0.245964 0.723669
v 0.409811 0.245964 0.620578
v 0.603751 0.245964 0.440281
v 0.757005 0.245964 -0.058250
v 0.697834 0.245964 -0.316355
v 0.553953 0.245964 -0.538657
v 0.089609 0.245964 -0.776152
v -0.174851 0.245964 -0.762699
v -0.418759 0.245964 -0.659607
v -0.733278 0.245964 -0.243557
v -0.765953 0.245964 0.019221
v -0.706782 0.245964 0.277326
v -0.562903 0.245964 0.499628
v -0.351668 0.245964 0.659313
v 0.149272 0.178732 0.651134
v -0.691633 0.178732 0.015440
v -0.378326 0.178732 -0.597134
v 0.544388 0.178732 0.395405
v 0.369376 0.178732 0.558104
v 0.149272 0.178732 0.651134
v -0.089375 0.178732 0.663274
v -0.317781 0.178732 0.593059
v -0.638235 0.178732 0.248354
v -0.553336 0.178732 -0.434434
v -0.691633 0.178732 0.015440
v -0.662146 0.178732 -0.221690
v -0.378326 0.178732 -0.597134
v -0.158222 0.178732 -0.690163
v 0.080425 0.178732 -0.702303
v 0.499451 0.178732 -0.487988
v 0.629287 0.178732 -0.287383
v 0.682683 0.178732 -0.054469
v 0.544388 0.178732 0.395405
vn 0.1657 0.0161 0.9860
vn -0.0658 -0.0061 0.9978
vn 0.2783 -0.0120 0.9604
vn 0.0750 -0.9967 -0.0317
vn -0.0524 -0.9977 0.0432
vn -0.0640 -0.9977 0.0227
vn 0.0504 -0.9987 0.0003
vn -0.0661 -0.9978 0.0034
vn -0.0660 -0.9977 -0.0161
vn -0.0564 -0.9977 -0.0378
vn 0.0608 -0.9979 0.0227
vn -0.0373 -0.9977 -0.0574
vn 0.0495 -0.9979 0.0421
vn 0.0182 -0.9979 0.0624
vn -0.0113 -0.9977 -0.0669
vn -0.0101 -0.9967 0.0808
vn 0.0123 -0.9977 -0.0668
vn -0.0209 -0.9989 0.0409
vn 0.0344 -0.9977 -0.0585
vn -0.0450 -0.9979 0.0469
vn 0.0524 -0.9977 -0.0432
vn -0.0583 -0.9979 0.0287
vn 0.0640 -0.9977 -0.0227
vn -0.0814 -0.9967 0.0041
vn 0.0679 -0.9977 0.0005
vn -0.0609 -0.9979 -0.0227
vn 0.0636 -0.9977 0.0237
vn -0.0383 -0.9987 -0.0327
vn 0.0529 -0.9978 0.0400
vn 0.0464 -0.9963 0.0718
vn 0.0660 -0.0072 -0.9978
vn -0.1657 -0.0171 -0.9860
vn -0.2770 -0.0108 -0.9608
vn 0.0089 -0.9986 0.0530
vn -0.0250 -0.9989 -0.0386
vn 0.0449 -0.9979 -0.0469
vn -0.0344 -0.9977 0.0584
vn -0.0869 0.7103 0.6985
vn -0.1798 0.0111 0.9836
vn 0.0075 0.9994 0.0335
vn -0.0003 1.0000 0.0021
vn -0.5041 0.0212 0.8634
vn -0.3195 0.7125 0.6247
vn -0.0785 0.9850 0.1537
vn -0.5156 0.7103 0.4792
vn -0.7700 0.0111 0.6379
vn -0.0048 1.0000 0.0041
vn -0.9407 0.0162 0.3388
vn -0.7119 0.6512 0.2628
vn -0.0314 0.9994 0.0133
vn -0.9999 0.0162 -0.0034
vn -0.7030 0.7109 0.0181
vn -0.0518 0.9987 -0.0004
vn -0.9378 0.0211 -0.3465
vn -0.5733 0.8002 -0.1762
vn -0.1052 0.9939 -0.0323
vn -0.5875 0.6680 -0.4568
vn -0.7619 0.0111 -0.6476
vn -0.0018 1.0000 -0.0011
vn -0.4970 0.0162 -0.8676
vn -0.3471 0.7104 -0.6123
vn -0.0862 0.9894 -0.1172
vn -0.1688 0.0212 -0.9854
vn -0.1296 0.7667 -0.6288
vn -0.0066 0.9997 -0.0227
vn 0.0692 0.7109 -0.6999
vn 0.1813 0.0162 -0.9833
vn 0.0094 0.9894 -0.1452
vn 0.3612 0.6090 -0.7062
vn 0.5054 0.0111 -0.8628
vn 0.0027 1.0000 -0.0055
vn 0.7681 0.0162 -0.6401
vn 0.5269 0.7109 -0.4657
vn 0.0202 0.9997 -0.0166
vn 0.9411 0.0212 -0.3374
vn 0.5857 0.7667 -0.2629
vn 0.0489 0.9987 -0.0173
vn 0.6996 0.7104 -0.0769
vn 0.9998 0.0162 0.0078
vn 0.1455 0.9894 0.0012
vn 0.6729 0.7102 0.2068
vn 0.9375 0.0111 0.3479
vn 0.0016 1.0000 0.0005
vn 0.7627 0.0212 0.6464
vn 0.5597 0.7125 0.4232
vn 0.1376 0.9850 0.1041
vn 0.3800 0.7506 0.5406
vn 0.4932 0.0162 0.8698
vn 0.0196 0.9994 0.0300
vn 0.2036 0.6512 0.7311
vn 0.1661 0.0161 0.9860
vn 0.0077 0.9994 0.0333
vn 0.0013 1.0000 0.0004
vn 0.0026 1.0000 -0.0050
vn -0.0014 1.0000 -0.0010
vn 0.4023 -0.0108 -0.9154
vn 0.1813 -0.0171 -0.9833
vn 0.8979 -0.0108 -0.4400
vn 0.7709 -0.0171 -0.6367
vn 0.6926 -0.0142 -0.7212
vn 0.9941 -0.0072 -0.1083
vn 0.9422 -0.0171 -0.3347
vn 0.9709 -0.0143 0.2392
vn 0.9999 -0.0117 0.0060
vn 0.8300 -0.0108 0.5577
vn 0.9387 -0.0172 0.3444
vn 0.5892 -0.0107 0.8079
vn 0.7630 -0.0224 0.6460
vn 0.2773 -0.0108 0.9607
vn 0.4948 -0.0117 0.8689
vn -0.0660 -0.0072 0.9978
vn 0.1693 -0.0224 0.9853
vn -0.4041 -0.0142 0.9146
vn -0.1813 -0.0171 0.9833
vn -0.6933 -0.0108 0.7205
vn -0.5052 -0.0117 0.8629
vn -0.8980 -0.0108 0.4400
vn -0.7676 -0.0171 0.6407
vn -0.9941 -0.0072 0.1083
vn -0.9409 -0.0224 0.3379
vn -0.9709 -0.0143 -0.2392
vn -0.9998 -0.0171 -0.0078
vn -0.8300 -0.0107 -0.5577
vn -0.9369 -0.0171 -0.3493
vn -0.5892 -0.0108 -0.8079
vn -0.7609 -0.0171 -0.6486
vn -0.2777 -0.0108 -0.9606
vn -0.4932 -0.0171 -0.8697
vn 0.5066 -0.0171 -0.8620
vn 0.0727 -0.6739 -0.7352
vn 0.0037 -0.9984 -0.0573
vn -0.1828 -0.6738 -0.7159
vn 0.3198 -0.6739 -0.6660
vn 0.0117 -0.9996 -0.0265
vn 0.5535 -0.6124 -0.5644
vn 0.0022 -1.0000 -0.0021
vn 0.6629 -0.6734 -0.3273
vn 0.7385 -0.6732 -0.0376
vn 0.0266 -0.9996 -0.0112
vn 0.1562 -0.9870 0.0380
vn 0.6927 -0.6734 0.2583
vn 0.0049 -1.0000 0.0037
vn 0.5881 -0.6756 0.4446
vn 0.4018 -0.6732 0.6207
vn 0.0073 -0.9997 0.0250
vn 0.1374 -0.7331 0.6661
vn -0.0727 -0.6739 0.7352
vn -0.0103 -0.9870 0.1605
vn -0.3633 -0.6294 0.6869
vn -0.0011 -1.0000 0.0024
vn -0.1111 -0.9870 0.1163
vn -0.5701 -0.6734 0.4707
vn -0.0234 -0.9997 0.0116
vn -0.6321 -0.7331 0.2510
vn -0.7869 -0.6124 0.0766
vn -0.1901 -0.9817 0.0097
vn -0.7182 -0.6734 -0.1754
vn -0.5728 -0.7158 -0.3995
vn -0.0033 -1.0000 -0.0010
vn -0.4169 -0.6739 -0.6099
vn -0.0053 -1.0000 -0.0072
vn -0.1834 -0.6739 -0.7157
vn -0.1661 -0.0170 -0.9860
vn -0.0453 -0.9870 -0.1542
vn 0.0019 -1.0000 -0.0019
vn -0.0009 -1.0000 0.0021
vn -0.0029 -1.0000 -0.0009
vn 0.0667 -0.0120 -0.9977
vn -0.2794 -0.0061 -0.9602
vn 0.4046 -0.0091 -0.9144
vn 0.6930 -0.0091 -0.7209
vn 0.8978 -0.0091 -0.4404
vn 0.9941 -0.0061 -0.1084
vn 0.9714 -0.0091 0.2372
vn 0.8317 -0.0091 0.5552
vn 0.5917 -0.0091 0.8061
vn 0.0262 -0.9979 -0.0593
vn -0.0123 -0.9977 0.0668
vn 0.2789 -0.0120 0.9602
vn -0.4024 -0.0091 0.9154
vn -0.6911 -0.0091 0.7227
vn -0.8966 -0.0091 0.4427
vn -0.9940 -0.0090 0.1093
vn -0.9710 -0.0120 -0.2389
vn -0.8312 -0.0061 -0.5559
vn -0.5902 -0.0120 -0.8071
vn 0.2786 -0.0124 0.9603
vn -0.0816 -0.6687 0.7390
vn 0.1572 -0.7673 0.6217
vn -0.4023 -0.0094 0.9154
vn -0.0659 -0.0064 0.9978
vn -0.3353 -0.7116 0.6175
vn -0.6911 -0.0094 0.7227
vn -0.5263 -0.7115 0.4656
vn -0.8967 -0.0095 0.4426
vn -0.6538 -0.7116 0.2574
vn -0.9940 -0.0094 0.1093
vn -0.6598 -0.7514 0.0085
vn -0.9710 -0.0123 -0.2388
vn -0.5869 -0.6687 -0.4565
vn -0.6089 -0.7671 -0.2021
vn -0.5902 -0.0123 -0.8072
vn -0.8312 -0.0064 -0.5560
vn -0.1761 -0.6688 -0.7223
vn -0.3813 -0.7125 -0.5891
vn 0.0667 -0.0123 -0.9977
vn -0.2794 -0.0065 -0.9601
vn 0.0650 -0.7670 -0.6383
vn 0.2829 -0.7111 -0.6437
vn 0.4046 -0.0094 -0.9144
vn 0.4859 -0.7111 -0.5082
vn 0.6930 -0.0095 -0.7209
vn 0.6305 -0.7110 -0.3113
vn 0.8978 -0.0095 -0.4404
vn 0.7420 -0.6687 -0.0480
vn 0.9714 -0.0094 0.2373
vn 0.9941 -0.0065 -0.1084
vn 0.6663 -0.7115 0.2230
vn 0.8317 -0.0095 0.5552
vn 0.5108 -0.7514 0.4177
vn 0.5916 -0.0094 0.8062
vn 0.3824 -0.6514 0.6553
vn 0.0043 -0.9979 -0.0648
vn -0.1729 -0.7134 -0.6791
vn -0.0255 -0.9958 -0.0876
vn 0.1019 -0.6708 -0.7346
vn -0.2773 -0.0111 -0.9607
vn 0.4023 -0.0111 -0.9154
vn 0.0660 -0.0075 -0.9978
vn 0.3555 -0.7129 -0.6045
vn 0.6927 -0.0146 -0.7211
vn 0.4785 -0.7684 -0.4250
vn 0.6840 -0.6522 -0.3268
vn 0.7401 -0.6708 -0.0481
vn 0.8979 -0.0111 -0.4400
vn 0.6159 -0.7684 0.1741
vn 0.9709 -0.0146 0.2392
vn 0.9941 -0.0075 -0.1083
vn 0.5833 -0.7128 0.3894
vn 0.3777 -0.7536 0.5380
vn 0.8299 -0.0111 0.5578
vn 0.0360 -0.9978 0.0556
vn 0.1728 -0.7133 0.6792
vn 0.5892 -0.0111 0.8079
vn -0.0978 -0.6103 0.7861
vn 0.2773 -0.0111 0.9607
vn -0.2719 -0.8021 0.5317
vn -0.4042 -0.0145 0.9146
vn -0.0660 -0.0075 0.9978
vn -0.5018 -0.7133 0.4893
vn -0.6388 -0.7134 0.2882
vn -0.6934 -0.0112 0.7205
vn -0.7912 -0.6103 0.0402
vn -0.8980 -0.0111 0.4399
vn -0.6159 -0.7684 -0.1741
vn -0.9709 -0.0145 -0.2392
vn -0.9941 -0.0074 0.1082
vn -0.5832 -0.7129 -0.3894
vn -0.3776 -0.7536 -0.5381
vn -0.8300 -0.0111 -0.5577
vn -0.5892 -0.0111 -0.8079
vn 0.2033 0.6512 0.7311
vn -0.0002 1.0000 0.0019
vn 0.0075 0.9994 0.0329
vn 0.0194 0.9994 0.0298
vn 0.1371 0.9851 0.1037
vn 0.1448 0.9895 0.0013
vn 0.0485 0.9987 -0.0172
vn 0.0200 0.9997 -0.0165
vn 0.0093 0.9895 -0.1445
vn -0.0065 0.9997 -0.0223
vn -0.0858 0.9895 -0.1167
vn -0.1045 0.9940 -0.0322
vn -0.0515 0.9987 -0.0005
vn -0.0311 0.9994 0.0132
vn -0.0045 1.0000 0.0040
vn -0.0782 0.9851 0.1530
vn -0.0450 -0.9870 -0.1544
vn 0.0396 -0.9992 -0.0020
vn 0.0661 -0.9926 0.1021
vn -0.0971 -0.9926 -0.0734
vn -0.0051 -1.0000 -0.0070
vn -0.0450 -0.9871 -0.1537
vn 0.0036 -0.9984 -0.0569
vn 0.0115 -0.9996 -0.0262
vn 0.0263 -0.9996 -0.0111
vn 0.0047 -1.0000 0.0035
vn 0.0393 -0.9992 -0.0020
vn 0.1556 -0.9871 0.0379
vn 0.0658 -0.9926 0.1016
vn 0.0072 -0.9997 0.0247
vn -0.0103 -0.9871 0.1598
vn -0.1106 -0.9871 0.1158
vn -0.0231 -0.9997 0.0114
vn -0.1895 -0.9818 0.0096
vn -0.0966 -0.9926 -0.0730
vt 0.475084 0.349569
vt 0.468530 0.345471
vt 0.468574 0.349638
vt 0.842132 0.029891
vt 0.844222 0.033419
vt 0.842798 0.029506
vt 0.839627 0.026906
vt 0.840122 0.026316
vt 0.836515 0.024233
vt 0.832415 0.023510
vt 0.836252 0.024957
vt 0.828313 0.024232
vt 0.832414 0.024279
vt 0.825200 0.026903
vt 0.824705 0.026313
vt 0.822696 0.029889
vt 0.822029 0.029504
vt 0.821363 0.033551
vt 0.820605 0.033417
vt 0.821363 0.037448
vt 0.820605 0.037582
vt 0.822696 0.041110
vt 0.822029 0.041495
vt 0.825201 0.044096
vt 0.824706 0.044685
vt 0.828575 0.046044
vt 0.828312 0.046768
vt 0.832413 0.046722
vt 0.832413 0.047491
vt 0.836514 0.046769
vt 0.468084 0.189784
vt 0.473707 0.186005
vt 0.468120 0.185951
vt 0.840122 0.044688
vt 0.836251 0.046046
vt 0.843464 0.033553
vt 0.844222 0.037584
vt 0.475312 0.345402
vt 0.475036 0.345405
vt 0.475645 0.349497
vt 0.475592 0.345398
vt 0.474996 0.341245
vt 0.475274 0.341243
vt 0.475557 0.341240
vt 0.475241 0.337081
vt 0.474963 0.337083
vt 0.475523 0.337079
vt 0.474934 0.332919
vt 0.475212 0.332918
vt 0.475495 0.332916
vt 0.474910 0.328752
vt 0.475189 0.328750
vt 0.475472 0.328749
vt 0.474891 0.324580
vt 0.475170 0.324579
vt 0.475454 0.324578
vt 0.475157 0.320402
vt 0.474878 0.320403
vt 0.475441 0.320402
vt 0.474870 0.316220
vt 0.475149 0.316220
vt 0.475433 0.316219
vt 0.474866 0.312029
vt 0.475147 0.312029
vt 0.475431 0.312030
vt 0.475149 0.307831
vt 0.474868 0.307831
vt 0.475434 0.307832
vt 0.475156 0.303626
vt 0.474875 0.303625
vt 0.475442 0.303627
vt 0.474887 0.299413
vt 0.475169 0.299414
vt 0.475455 0.299415
vt 0.474905 0.295196
vt 0.475187 0.295197
vt 0.475473 0.295198
vt 0.475210 0.290975
vt 0.474927 0.290973
vt 0.475496 0.290977
vt 0.475238 0.286749
vt 0.474955 0.286747
vt 0.475524 0.286751
vt 0.474988 0.282518
vt 0.475271 0.282520
vt 0.475558 0.282522
vt 0.475307 0.278290
vt 0.475026 0.278287
vt 0.475592 0.278294
vt 0.475360 0.274073
vt 0.475074 0.274050
vt 0.475645 0.274123
vt 0.800711 0.072570
vt 0.793171 0.085631
vt 0.804723 0.095325
vt 0.468055 0.193615
vt 0.473666 0.189833
vt 0.468014 0.201268
vt 0.473607 0.197476
vt 0.468032 0.197443
vt 0.468002 0.205089
vt 0.473584 0.201294
vt 0.467996 0.208904
vt 0.473566 0.205108
vt 0.467994 0.212714
vt 0.473551 0.208917
vt 0.467996 0.216517
vt 0.473540 0.212721
vt 0.468003 0.220312
vt 0.473533 0.216518
vt 0.468014 0.224099
vt 0.473529 0.220308
vt 0.468029 0.227879
vt 0.473528 0.224089
vt 0.468047 0.231652
vt 0.473533 0.227862
vt 0.468070 0.235420
vt 0.473543 0.231628
vt 0.468096 0.239183
vt 0.473558 0.235389
vt 0.468127 0.242943
vt 0.473578 0.239146
vt 0.468161 0.246701
vt 0.473604 0.242899
vt 0.468199 0.250457
vt 0.473636 0.246650
vt 0.468240 0.254212
vt 0.473672 0.250399
vt 0.473634 0.193656
vt 0.473944 0.189836
vt 0.474205 0.189839
vt 0.473989 0.186026
vt 0.473913 0.193658
vt 0.474176 0.193659
vt 0.473886 0.197478
vt 0.474149 0.197480
vt 0.473863 0.201295
vt 0.473844 0.205109
vt 0.474126 0.201297
vt 0.474092 0.208918
vt 0.473829 0.208918
vt 0.474080 0.212722
vt 0.473818 0.212721
vt 0.473810 0.216518
vt 0.474066 0.220309
vt 0.473805 0.220308
vt 0.473804 0.224088
vt 0.474064 0.224088
vt 0.473808 0.227861
vt 0.474068 0.227860
vt 0.474077 0.231626
vt 0.473817 0.231627
vt 0.474092 0.235386
vt 0.473832 0.235388
vt 0.473853 0.239144
vt 0.474112 0.239142
vt 0.473878 0.242897
vt 0.473909 0.246647
vt 0.474137 0.242895
vt 0.473944 0.250395
vt 0.474201 0.250392
vt 0.473995 0.254131
vt 0.473718 0.254151
vt 0.474252 0.254086
vt 0.826548 0.087742
vt 0.846141 0.080610
vt 0.835716 0.071863
vt 0.468297 0.307833
vt 0.468307 0.312041
vt 0.468293 0.303618
vt 0.468296 0.299397
vt 0.468306 0.295170
vt 0.468322 0.290938
vt 0.468344 0.286703
vt 0.468373 0.282465
vt 0.468408 0.278224
vt 0.843464 0.037450
vt 0.842798 0.041497
vt 0.468450 0.273982
vt 0.468490 0.341304
vt 0.468453 0.337135
vt 0.468420 0.332964
vt 0.468390 0.328790
vt 0.468364 0.324612
vt 0.468341 0.320428
vt 0.468323 0.316238
vt 0.840328 0.044934
vt 0.842938 0.041577
vt 0.840226 0.044812
vt 0.844537 0.037639
vt 0.843075 0.041657
vt 0.844381 0.037611
vt 0.844537 0.033364
vt 0.844381 0.033391
vt 0.843075 0.029346
vt 0.842937 0.029426
vt 0.840327 0.026071
vt 0.840225 0.026193
vt 0.836625 0.023933
vt 0.832415 0.023349
vt 0.836570 0.024082
vt 0.828204 0.023931
vt 0.832415 0.023190
vt 0.824602 0.026189
vt 0.828259 0.024081
vt 0.821752 0.029344
vt 0.824499 0.026067
vt 0.821890 0.029424
vt 0.820447 0.033390
vt 0.820290 0.033362
vt 0.820447 0.037610
vt 0.820290 0.037637
vt 0.821890 0.041575
vt 0.821752 0.041655
vt 0.824602 0.044808
vt 0.828203 0.047068
vt 0.824500 0.044930
vt 0.828257 0.046919
vt 0.832413 0.047811
vt 0.832413 0.047652
vt 0.836623 0.047070
vt 0.836569 0.046920
vt 0.842132 0.041112
vt 0.839523 0.043975
vt 0.839627 0.044098
vt 0.841992 0.041032
vt 0.839422 0.043854
vt 0.843151 0.037395
vt 0.841856 0.040953
vt 0.843306 0.037422
vt 0.843151 0.033608
vt 0.843306 0.033581
vt 0.841992 0.029971
vt 0.839523 0.027029
vt 0.841856 0.030050
vt 0.836197 0.025108
vt 0.836143 0.025255
vt 0.839422 0.027149
vt 0.832414 0.024440
vt 0.828631 0.025106
vt 0.832414 0.024597
vt 0.828577 0.024955
vt 0.825304 0.027026
vt 0.828685 0.025254
vt 0.822835 0.029969
vt 0.825405 0.027147
vt 0.821521 0.033579
vt 0.821676 0.033606
vt 0.822971 0.030048
vt 0.821522 0.037420
vt 0.822835 0.041030
vt 0.821676 0.037393
vt 0.825304 0.043973
vt 0.822971 0.040951
vt 0.828630 0.045893
vt 0.828684 0.045746
vt 0.825405 0.043852
vt 0.832413 0.046561
vt 0.836196 0.045895
vt 0.832413 0.046404
vt 0.836142 0.045747
vt 0.475365 0.349546
vt 0.814883 0.077728
vt 0.812264 0.074607
vt 0.808735 0.072570
vt 0.804723 0.071863
vt 0.797183 0.074607
vt 0.794564 0.077728
vt 0.793171 0.081556
vt 0.794564 0.089459
vt 0.797183 0.092580
vt 0.800711 0.094617
vt 0.808735 0.094617
vt 0.812264 0.092580
vt 0.814883 0.089459
vt 0.816276 0.085631
vt 0.816276 0.081556
vt 0.474252 0.186071
vt 0.474107 0.205110
vt 0.474072 0.216519
vt 0.474168 0.246645
vt 0.828912 0.074339
vt 0.826548 0.077156
vt 0.825291 0.080610
vt 0.825291 0.084287
vt 0.828912 0.090558
vt 0.839337 0.092396
vt 0.832096 0.092396
vt 0.835716 0.093035
vt 0.842521 0.090558
vt 0.844884 0.087742
vt 0.846141 0.084287
vt 0.844884 0.077156
vt 0.842521 0.074339
vt 0.839337 0.072501
vt 0.832096 0.072501
s 1
usemtl Checker2
f 1/1/1 2/2/2 3/3/3
f 4/4/4 5/5/5 6/6/6
f 7/7/7 6/6/6 8/8/8
f 9/9/9 7/7/7 8/8/8
f 10/10/10 11/11/11 9/9/9
f 12/12/12 13/13/13 10/10/10
f 14/14/14 12/12/12 15/15/15
f 16/16/16 15/15/15 17/17/17
f 18/18/18 17/17/17 19/19/19
f 20/20/20 19/19/19 21/21/21
f 22/22/22 21/21/21 23/23/23
f 24/24/24 23/23/23 25/25/25
f 26/26/26 25/25/25 27/27/27
f 28/28/28 27/27/27 29/29/29
f 30/30/30 28/28/28 29/29/29
f 31/31/31 32/32/32 33/33/33
f 34/34/34 35/35/35 30/30/30
f 36/36/36 37/37/37 5/5/5
f 1/1/1 38/38/38 39/39/39
f 38/38/38 40/40/40 41/41/41
f 42/42/42 38/38/38 43/43/43
f 38/38/38 44/44/44 43/43/43
f 42/42/42 45/45/45 46/46/46
f 45/45/45 44/44/44 47/47/47
f 48/48/48 45/45/45 49/49/49
f 45/45/45 50/50/50 49/49/49
f 51/51/51 49/49/49 52/52/52
f 52/52/52 50/50/50 53/53/53
f 54/54/54 52/52/52 55/55/55
f 55/55/55 53/53/53 56/56/56
f 54/54/54 57/57/57 58/58/58
f 55/55/55 59/59/59 57/57/57
f 60/60/60 57/57/57 61/61/61
f 57/57/57 62/62/62 61/61/61
f 63/63/63 61/61/61 64/64/64
f 61/61/61 65/65/65 64/64/64
f 63/63/63 66/66/66 67/67/67
f 64/64/64 68/68/68 66/66/66
f 67/67/67 69/69/69 70/70/70
f 66/66/66 71/71/71 69/69/69
f 72/72/72 69/69/69 73/73/73
f 73/73/73 71/71/71 74/74/74
f 75/75/75 73/73/73 76/76/76
f 76/76/76 74/74/74 77/77/77
f 75/75/75 78/78/78 79/79/79
f 78/78/78 77/77/77 80/80/80
f 79/79/79 81/81/81 82/82/82
f 81/81/81 80/80/80 83/83/83
f 84/84/84 81/81/81 85/85/85
f 81/81/81 86/86/86 85/85/85
f 84/84/84 87/87/87 88/88/88
f 87/87/87 86/86/86 89/89/89
f 88/88/88 90/90/90 91/91/91
f 87/87/87 92/92/92 90/90/90
f 93/93/93 94/94/94 95/95/95
f 96/96/96 97/97/97 31/31/31
f 98/98/98 99/99/99 100/100/100
f 101/101/101 102/102/102 98/98/98
f 103/103/103 104/104/104 101/101/101
f 105/105/105 106/106/106 103/103/103
f 107/107/107 108/108/108 105/105/105
f 109/109/109 110/110/110 107/107/107
f 111/111/111 112/112/112 109/109/109
f 113/113/113 114/114/114 111/111/111
f 115/115/115 116/116/116 113/113/113
f 117/117/117 118/118/118 115/115/115
f 119/119/119 120/120/120 117/117/117
f 121/121/121 122/122/122 119/119/119
f 123/123/123 124/124/124 121/121/121
f 125/125/125 126/126/126 123/123/123
f 127/127/127 128/128/128 125/125/125
f 100/100/100 129/129/129 96/96/96
f 130/130/130 32/32/32 97/97/97
f 131/131/131 132/132/132 130/130/130
f 133/133/133 97/97/97 129/129/129
f 134/134/134 130/130/130 133/133/133
f 135/135/135 129/129/129 99/99/99
f 136/136/136 133/133/133 135/135/135
f 137/137/137 99/99/99 102/102/102
f 137/137/137 136/136/136 135/135/135
f 138/138/138 102/102/102 104/104/104
f 138/138/138 139/139/139 137/137/137
f 106/106/106 138/138/138 104/104/104
f 140/140/140 138/138/138 141/141/141
f 108/108/108 141/141/141 106/106/106
f 142/142/142 141/141/141 143/143/143
f 144/144/144 108/108/108 110/110/110
f 144/144/144 142/142/142 143/143/143
f 112/112/112 144/144/144 110/110/110
f 145/145/145 144/144/144 146/146/146
f 147/147/147 112/112/112 114/114/114
f 148/148/148 146/146/146 147/147/147
f 149/149/149 114/114/114 116/116/116
f 150/150/150 147/147/147 149/149/149
f 118/118/118 149/149/149 116/116/116
f 151/151/151 149/149/149 152/152/152
f 120/120/120 152/152/152 118/118/118
f 153/153/153 152/152/152 154/154/154
f 155/155/155 120/120/120 122/122/122
f 156/156/156 154/154/154 155/155/155
f 157/157/157 122/122/122 124/124/124
f 157/157/157 156/156/156 155/155/155
f 158/158/158 124/124/124 126/126/126
f 158/158/158 159/159/159 157/157/157
f 160/160/160 126/126/126 128/128/128
f 161/161/161 158/158/158 160/160/160
f 162/162/162 128/128/128 163/163/163
f 164/164/164 160/160/160 162/162/162
f 165/165/165 166/166/166 167/167/167
f 63/63/63 168/168/168 169/169/169
f 67/67/67 170/170/170 168/168/168
f 70/70/70 171/171/171 170/170/170
f 72/72/72 172/172/172 171/171/171
f 75/75/75 173/173/173 172/172/172
f 79/79/79 174/174/174 173/173/173
f 82/82/82 175/175/175 174/174/174
f 84/84/84 176/176/176 175/175/175
f 177/177/177 178/178/178 37/37/37
f 88/88/88 179/179/179 176/176/176
f 39/39/39 180/180/180 2/2/2
f 42/42/42 181/181/181 180/180/180
f 46/46/46 182/182/182 181/181/181
f 48/48/48 183/183/183 182/182/182
f 51/51/51 184/184/184 183/183/183
f 54/54/54 185/185/185 184/184/184
f 58/58/58 186/186/186 185/185/185
f 60/60/60 169/169/169 186/186/186
f 187/187/187 188/188/188 189/189/189
f 188/188/188 34/34/34 189/189/189
f 190/190/190 188/188/188 191/191/191
f 192/192/192 178/178/178 188/188/188
f 193/193/193 192/192/192 190/190/190
f 194/194/194 37/37/37 192/192/192
f 195/195/195 194/194/194 193/193/193
f 196/196/196 5/5/5 194/194/194
f 197/197/197 196/196/196 195/195/195
f 198/198/198 6/6/6 196/196/196
f 199/199/199 198/198/198 197/197/197
f 198/198/198 9/9/9 8/8/8
f 199/199/199 200/200/200 201/201/201
f 201/201/201 10/10/10 9/9/9
f 202/202/202 200/200/200 203/203/203
f 200/200/200 12/12/12 10/10/10
f 202/202/202 204/204/204 205/205/205
f 204/204/204 12/12/12 205/205/205
f 206/206/206 204/204/204 207/207/207
f 208/208/208 15/15/15 204/204/204
f 206/206/206 209/209/209 208/208/208
f 209/209/209 17/17/17 208/208/208
f 210/210/210 211/211/211 209/209/209
f 211/211/211 19/19/19 209/209/209
f 212/212/212 213/213/213 211/211/211
f 213/213/213 21/21/21 211/211/211
f 214/214/214 215/215/215 213/213/213
f 215/215/215 23/23/23 213/213/213
f 216/216/216 215/215/215 217/217/217
f 218/218/218 25/25/25 215/215/215
f 219/219/219 218/218/218 216/216/216
f 220/220/220 27/27/27 218/218/218
f 221/221/221 220/220/220 219/219/219
f 220/220/220 30/30/30 29/29/29
f 187/187/187 222/222/222 221/221/221
f 189/189/189 30/30/30 222/222/222
f 223/223/223 224/224/224 225/225/225
f 226/226/226 227/227/227 224/224/224
f 177/177/177 226/226/226 223/223/223
f 226/226/226 228/228/228 229/229/229
f 36/36/36 230/230/230 177/177/177
f 230/230/230 231/231/231 228/228/228
f 4/4/4 232/232/232 36/36/36
f 233/233/233 231/231/231 232/232/232
f 4/4/4 234/234/234 233/233/233
f 234/234/234 235/235/235 233/233/233
f 7/7/7 236/236/236 234/234/234
f 234/234/234 237/237/237 238/238/238
f 11/11/11 239/239/239 236/236/236
f 239/239/239 237/237/237 236/236/236
f 13/13/13 240/240/240 239/239/239
f 240/240/240 241/241/241 239/239/239
f 14/14/14 240/240/240 242/242/242
f 243/243/243 244/244/244 240/240/240
f 16/16/16 243/243/243 14/14/14
f 245/245/245 246/246/246 243/243/243
f 16/16/16 247/247/247 245/245/245
f 245/245/245 248/248/248 249/249/249
f 20/20/20 247/247/247 18/18/18
f 250/250/250 248/248/248 247/247/247
f 22/22/22 250/250/250 20/20/20
f 251/251/251 252/252/252 250/250/250
f 24/24/24 251/251/251 22/22/22
f 253/253/253 254/254/254 251/251/251
f 24/24/24 255/255/255 253/253/253
f 253/253/253 256/256/256 257/257/257
f 26/26/26 258/258/258 255/255/255
f 258/258/258 256/256/256 255/255/255
f 28/28/28 259/259/259 258/258/258
f 259/259/259 260/260/260 258/258/258
f 225/225/225 259/259/259 35/35/35
f 224/224/224 261/261/261 259/259/259
f 223/223/223 34/34/34 178/178/178
f 1/1/1 39/39/39 2/2/2
f 4/4/4 36/36/36 5/5/5
f 7/7/7 4/4/4 6/6/6
f 9/9/9 11/11/11 7/7/7
f 10/10/10 13/13/13 11/11/11
f 12/12/12 242/242/242 13/13/13
f 14/14/14 242/242/242 12/12/12
f 16/16/16 14/14/14 15/15/15
f 18/18/18 16/16/16 17/17/17
f 20/20/20 18/18/18 19/19/19
f 22/22/22 20/20/20 21/21/21
f 24/24/24 22/22/22 23/23/23
f 26/26/26 24/24/24 25/25/25
f 28/28/28 26/26/26 27/27/27
f 30/30/30 35/35/35 28/28/28
f 31/31/31 97/97/97 32/32/32
f 34/34/34 225/225/225 35/35/35
f 36/36/36 177/177/177 37/37/37
f 1/1/1 262/262/262 38/38/38
f 38/38/38 262/262/262 40/40/40
f 42/42/42 39/39/39 38/38/38
f 38/38/38 41/41/41 44/44/44
f 42/42/42 43/43/43 45/45/45
f 45/45/45 43/43/43 44/44/44
f 48/48/48 46/46/46 45/45/45
f 45/45/45 47/47/47 50/50/50
f 51/51/51 48/48/48 49/49/49
f 52/52/52 49/49/49 50/50/50
f 54/54/54 51/51/51 52/52/52
f 55/55/55 52/52/52 53/53/53
f 54/54/54 55/55/55 57/57/57
f 55/55/55 56/56/56 59/59/59
f 60/60/60 58/58/58 57/57/57
f 57/57/57 59/59/59 62/62/62
f 63/63/63 60/60/60 61/61/61
f 61/61/61 62/62/62 65/65/65
f 63/63/63 64/64/64 66/66/66
f 64/64/64 65/65/65 68/68/68
f 67/67/67 66/66/66 69/69/69
f 66/66/66 68/68/68 71/71/71
f 72/72/72 70/70/70 69/69/69
f 73/73/73 69/69/69 71/71/71
f 75/75/75 72/72/72 73/73/73
f 76/76/76 73/73/73 74/74/74
f 75/75/75 76/76/76 78/78/78
f 78/78/78 76/76/76 77/77/77
f 79/79/79 78/78/78 81/81/81
f 81/81/81 78/78/78 80/80/80
f 84/84/84 82/82/82 81/81/81
f 81/81/81 83/83/83 86/86/86
f 84/84/84 85/85/85 87/87/87
f 87/87/87 85/85/85 86/86/86
f 88/88/88 87/87/87 90/90/90
f 87/87/87 89/89/89 92/92/92
f 263/263/263 264/264/264 93/93/93
f 264/264/264 265/265/265 93/93/93
f 265/265/265 266/266/266 93/93/93
f 93/93/93 267/267/267 268/268/268
f 268/268/268 269/269/269 93/93/93
f 269/269/269 94/94/94 93/93/93
f 94/94/94 270/270/270 271/271/271
f 271/271/271 272/272/272 95/95/95
f 95/95/95 273/273/273 274/274/274
f 274/274/274 275/275/275 95/95/95
f 275/275/275 276/276/276 95/95/95
f 276/276/276 277/277/277 263/263/263
f 94/94/94 271/271/271 95/95/95
f 276/276/276 263/263/263 95/95/95
f 263/263/263 93/93/93 95/95/95
f 96/96/96 129/129/129 97/97/97
f 98/98/98 102/102/102 99/99/99
f 101/101/101 104/104/104 102/102/102
f 103/103/103 106/106/106 104/104/104
f 105/105/105 108/108/108 106/106/106
f 107/107/107 110/110/110 108/108/108
f 109/109/109 112/112/112 110/110/110
f 111/111/111 114/114/114 112/112/112
f 113/113/113 116/116/116 114/114/114
f 115/115/115 118/118/118 116/116/116
f 117/117/117 120/120/120 118/118/118
f 119/119/119 122/122/122 120/120/120
f 121/121/121 124/124/124 122/122/122
f 123/123/123 126/126/126 124/124/124
f 125/125/125 128/128/128 126/126/126
f 127/127/127 163/163/163 128/128/128
f 100/100/100 99/99/99 129/129/129
f 130/130/130 132/132/132 32/32/32
f 131/131/131 278/278/278 132/132/132
f 133/133/133 130/130/130 97/97/97
f 134/134/134 131/131/131 130/130/130
f 135/135/135 133/133/133 129/129/129
f 136/136/136 134/134/134 133/133/133
f 137/137/137 135/135/135 99/99/99
f 137/137/137 139/139/139 136/136/136
f 138/138/138 137/137/137 102/102/102
f 138/138/138 279/279/279 139/139/139
f 106/106/106 141/141/141 138/138/138
f 140/140/140 279/279/279 138/138/138
f 108/108/108 143/143/143 141/141/141
f 142/142/142 140/140/140 141/141/141
f 144/144/144 143/143/143 108/108/108
f 144/144/144 280/280/280 142/142/142
f 112/112/112 146/146/146 144/144/144
f 145/145/145 280/280/280 144/144/144
f 147/147/147 146/146/146 112/112/112
f 148/148/148 145/145/145 146/146/146
f 149/149/149 147/147/147 114/114/114
f 150/150/150 148/148/148 147/147/147
f 118/118/118 152/152/152 149/149/149
f 151/151/151 150/150/150 149/149/149
f 120/120/120 154/154/154 152/152/152
f 153/153/153 151/151/151 152/152/152
f 155/155/155 154/154/154 120/120/120
f 156/156/156 153/153/153 154/154/154
f 157/157/157 155/155/155 122/122/122
f 157/157/157 159/159/159 156/156/156
f 158/158/158 157/157/157 124/124/124
f 158/158/158 281/281/281 159/159/159
f 160/160/160 158/158/158 126/126/126
f 161/161/161 281/281/281 158/158/158
f 162/162/162 160/160/160 128/128/128
f 164/164/164 161/161/161 160/160/160
f 282/282/282 283/283/283 284/284/284
f 284/284/284 285/285/285 282/282/282
f 285/285/285 165/165/165 282/282/282
f 165/165/165 286/286/286 287/287/287
f 286/286/286 288/288/288 287/287/287
f 288/288/288 289/289/289 287/287/287
f 287/287/287 290/290/290 291/291/291
f 291/291/291 292/292/292 166/166/166
f 166/166/166 293/293/293 294/294/294
f 294/294/294 295/295/295 167/167/167
f 167/167/167 296/296/296 282/282/282
f 287/287/287 291/291/291 166/166/166
f 166/166/166 294/294/294 167/167/167
f 167/167/167 282/282/282 165/165/165
f 165/165/165 287/287/287 166/166/166
f 63/63/63 67/67/67 168/168/168
f 67/67/67 70/70/70 170/170/170
f 70/70/70 72/72/72 171/171/171
f 72/72/72 75/75/75 172/172/172
f 75/75/75 79/79/79 173/173/173
f 79/79/79 82/82/82 174/174/174
f 82/82/82 84/84/84 175/175/175
f 84/84/84 88/88/88 176/176/176
f 177/177/177 223/223/223 178/178/178
f 88/88/88 91/91/91 179/179/179
f 39/39/39 42/42/42 180/180/180
f 42/42/42 46/46/46 181/181/181
f 46/46/46 48/48/48 182/182/182
f 48/48/48 51/51/51 183/183/183
f 51/51/51 54/54/54 184/184/184
f 54/54/54 58/58/58 185/185/185
f 58/58/58 60/60/60 186/186/186
f 60/60/60 63/63/63 169/169/169
f 187/187/187 191/191/191 188/188/188
f 188/188/188 178/178/178 34/34/34
f 190/190/190 192/192/192 188/188/188
f 192/192/192 37/37/37 178/178/178
f 193/193/193 194/194/194 192/192/192
f 194/194/194 5/5/5 37/37/37
f 195/195/195 196/196/196 194/194/194
f 196/196/196 6/6/6 5/5/5
f 197/197/197 198/198/198 196/196/196
f 198/198/198 8/8/8 6/6/6
f 199/199/199 201/201/201 198/198/198
f 198/198/198 201/201/201 9/9/9
f 199/199/199 203/203/203 200/200/200
f 201/201/201 200/200/200 10/10/10
f 202/202/202 205/205/205 200/200/200
f 200/200/200 205/205/205 12/12/12
f 202/202/202 207/207/207 204/204/204
f 204/204/204 15/15/15 12/12/12
f 206/206/206 208/208/208 204/204/204
f 208/208/208 17/17/17 15/15/15
f 206/206/206 210/210/210 209/209/209
f 209/209/209 19/19/19 17/17/17
f 210/210/210 212/212/212 211/211/211
f 211/211/211 21/21/21 19/19/19
f 212/212/212 214/214/214 213/213/213
f 213/213/213 23/23/23 21/21/21
f 214/214/214 217/217/217 215/215/215
f 215/215/215 25/25/25 23/23/23
f 216/216/216 218/218/218 215/215/215
f 218/218/218 27/27/27 25/25/25
f 219/219/219 220/220/220 218/218/218
f 220/220/220 29/29/29 27/27/27
f 221/221/221 222/222/222 220/220/220
f 220/220/220 222/222/222 30/30/30
f 187/187/187 189/189/189 222/222/222
f 189/189/189 34/34/34 30/30/30
f 223/223/223 226/226/226 224/224/224
f 226/226/226 229/229/229 227/227/227
f 177/177/177 230/230/230 226/226/226
f 226/226/226 230/230/230 228/228/228
f 36/36/36 232/232/232 230/230/230
f 230/230/230 232/232/232 231/231/231
f 4/4/4 233/233/233 232/232/232
f 233/233/233 235/235/235 231/231/231
f 4/4/4 7/7/7 234/234/234
f 234/234/234 238/238/238 235/235/235
f 7/7/7 11/11/11 236/236/236
f 234/234/234 236/236/236 237/237/237
f 11/11/11 13/13/13 239/239/239
f 239/239/239 241/241/241 237/237/237
f 13/13/13 242/242/242 240/240/240
f 240/240/240 244/244/244 241/241/241
f 14/14/14 243/243/243 240/240/240
f 243/243/243 246/246/246 244/244/244
f 16/16/16 245/245/245 243/243/243
f 245/245/245 249/249/249 246/246/246
f 16/16/16 18/18/18 247/247/247
f 245/245/245 247/247/247 248/248/248
f 20/20/20 250/250/250 247/247/247
f 250/250/250 252/252/252 248/248/248
f 22/22/22 251/251/251 250/250/250
f 251/251/251 254/254/254 252/252/252
f 24/24/24 253/253/253 251/251/251
f 253/253/253 257/257/257 254/254/254
f 24/24/24 26/26/26 255/255/255
f 253/253/253 255/255/255 256/256/256
f 26/26/26 28/28/28 258/258/258
f 258/258/258 260/260/260 256/256/256
f 28/28/28 35/35/35 259/259/259
f 259/259/259 261/261/261 260/260/260
f 225/225/225 224/224/224 259/259/259
f 224/224/224 227/227/227 261/261/261
f 223/223/223 225/225/225 34/34/34
